<svg xmlns="http://www.w3.org/2000/svg" width="24" height="24" viewBox="0 0 24 24">
    <path fill="#1E1E1E" fill-rule="evenodd" d="M15.177 18.75l.058.687.002.021.005.064c.005.065.008.12.008.179 0 2.022-1.213 3.549-3.252 3.549-2.037 0-3.248-1.527-3.248-3.55 0-.059.003-.11.008-.179l.003-.032.003-.043.05-.696h6.363zm-1.471 1.5h-3.412c.161.936.755 1.5 1.704 1.5.952 0 1.546-.564 1.708-1.5zM12 .75c1.31 0 2.35.95 2.676 2.28 1.197.525 2.139 1.381 2.678 2.628.532.912.654 1.905.73 4.276.041 1.322.085 1.892.195 2.225.138.419.544.79 1.51 1.45.373.256.521.362.698.51.149.123.274.245.38.375.431.523.496 1.237.2 1.876l-.68-.315.68.316c-.103.221-.25.432-.437.636l-.223.243H3.592l-.223-.243c-.188-.206-.336-.417-.437-.637-.296-.64-.231-1.353.2-1.877.106-.13.231-.251.38-.375.177-.147.322-.25.7-.51.965-.66 1.37-1.03 1.508-1.45.103-.312.152-.89.19-2.036l.006-.188c.075-2.37.198-3.364.729-4.276.54-1.247 1.481-2.103 2.678-2.628C9.65 1.699 10.688.75 12.001.75zm0 1.5c-.64 0-1.17.554-1.27 1.408l-.053.461-.436.158C9.2 4.654 8.423 5.299 8.007 6.289l-.048.094c-.364.608-.477 1.493-.544 3.599l-.006.19c-.044 1.323-.097 1.947-.264 2.455-.283.86-.83 1.36-2.085 2.218-.337.231-.462.32-.589.426-.081.068-.141.126-.181.175-.05.061-.06.159.003.295l.005.009h15.404l.006-.012c.061-.133.052-.23.002-.292-.04-.05-.1-.107-.182-.175-.127-.106-.255-.197-.586-.425-1.257-.86-1.804-1.359-2.086-2.218-.177-.534-.223-1.126-.27-2.647-.068-2.105-.18-2.99-.545-3.598l-.048-.094c-.416-.99-1.193-1.635-2.234-2.012l-.436-.158-.054-.46c-.1-.854-.63-1.409-1.268-1.409z"/>
</svg>
