<svg xmlns="http://www.w3.org/2000/svg" width="24" height="24" viewBox="0 0 24 24">
    <path fill="#1E1E1E" fill-rule="evenodd" d="M12 1.25c5.937 0 10.75 4.813 10.75 10.75 0 3.36-1.542 6.361-3.958 8.333l-.01.009c-1.85 1.505-4.21 2.408-6.782 2.408-5.937 0-10.75-4.813-10.75-10.75S6.063 1.25 12 1.25zm3.063 9.856c1.41-3.81-2.103-5.769-5.4-3.459-.125.089-.276.136-.43.136-.595 0-.84 1.361-.307 3.394.124.475-.235.94-.726.94-.013 0 .011-.025-.016.084-.027.112-.035.228-.034.4v.032c0 .373.274 1.217.25 1.217.342 0 .641.232.726.564.2.781.623 1.488 1.216 2.035.154.142.241.342.241.551v.333c0 .586-.09.97-.48 1.41-.502.568-1.403.963-2.849 1.23l.041-.007c1.379.816 2.987 1.284 4.705 1.284 1.735 0 3.358-.478 4.746-1.309l-.016-.004c-1.43-.264-2.331-.659-2.834-1.227-.39-.44-.48-.825-.48-1.41v-.333c0-.207.086-.405.237-.547.578-.543.99-1.239 1.187-2.007.086-.331.384-.563.727-.563 0 0 .25-.785.25-1.217v-.035c0-.177-.007-.29-.031-.397-.026-.112 0-.084-.02-.084-.522 0-.884-.52-.703-1.01zM12 2.75c-5.109 0-9.25 4.141-9.25 9.25 0 2.724 1.177 5.173 3.051 6.866.384-.18.787-.303 1.196-.37 1.131-.21 1.746-.48 1.983-.747.088-.1.103-.164.103-.416v-.018c-.575-.598-1.012-1.315-1.281-2.099-.434-.216-.72-.68-.915-1.28-.146-.45-.237-1.017-.237-1.303v-.026c-.001-.285.013-.5.077-.762.098-.4.295-.738.592-.957-.497-2.458-.049-4.422 1.666-4.593 4.15-2.738 8.974-.2 7.71 4.624.278.223.462.555.552.945.058.25.07.454.07.74v.03c0 .31-.08.862-.223 1.31-.19.599-.485 1.064-.931 1.277-.264.766-.689 1.468-1.246 2.057v.022c0 .252.015.316.103.416.237.268.852.537 1.985.747.417.078.82.211 1.2.394 1.87-1.69 3.045-4.136 3.045-6.857 0-5.109-4.141-9.25-9.25-9.25z"/>
</svg>
