<svg xmlns="http://www.w3.org/2000/svg" width="48" height="48" viewBox="0 0 48 48">
    <path fill="#1E1E1E" d="M30.642 0c1.783 0 3.314 1.108 4.05 2.7h3.195C39.052 2.7 40 3.705 40 4.94v38.4c0 1.236-.948 2.24-2.113 2.24h-3.338c-.782 1.438-2.233 2.42-3.907 2.42H2.113C.948 48 0 46.994 0 45.76V2.24C0 1.005.948 0 2.113 0h28.529zm0 1.92H2.113c-.166 0-.302.143-.302.32v43.52c0 .174.136.32.302.32h28.529c1.497 0 2.716-1.293 2.716-2.88V4.8c0-1.59-1.22-2.88-2.716-2.88zm7.547 34.273h-3.02V43.2c0 .157-.028.307-.043.46h2.76c.167 0 .303-.143.303-.32v-7.147zm0-10.666h-3.02v8.746h3.02v-8.746zm0-10.666h-3.02v8.746h3.02v-8.746zm-12.83-5.582c1.164 0 2.113 1.006 2.113 2.24v5.12c0 1.235-.95 2.24-2.114 2.24H9.66c-1.164 0-2.113-1.005-2.113-2.24v-5.12c0-1.234.949-2.24 2.113-2.24h15.698zm0 1.92H9.66c-.164 0-.302.147-.302.32v5.12c0 .174.138.32.302.32h15.698c.164 0 .302-.146.302-.32v-5.12c0-.173-.138-.32-.302-.32zm12.528-6.578h-2.735c.002.061.018.118.018.179v8.14h3.019v-8c0-.177-.136-.32-.302-.32z"/>
</svg>
