<svg xmlns="http://www.w3.org/2000/svg" width="24" height="24" viewBox="0 0 24 24">
    <path fill="#1E1E1E" fill-rule="evenodd" d="M9.386 3.263c1.074 0 2.033.495 2.667 1.27.59-.723 1.465-1.203 2.453-1.263l.213-.007h7.334c.4 0 .73.297.782.683l.007.107v14.856c0 .4-.297.73-.682.782l-.107.007h-7.334c-1.034 0-1.877.854-1.877 1.912 0 .436-.353.79-.79.79-.399 0-.73-.298-.782-.683l-.007-.107-.006-.15c-.07-.936-.802-1.68-1.717-1.756l-.154-.006H2.053c-.4 0-.73-.297-.783-.682l-.007-.107V4.053c0-.4.297-.73.683-.783l.107-.007h7.333zm11.877 1.58H14.72c-.985 0-1.796.773-1.871 1.761l-.006.15v11.925c.48-.315 1.043-.512 1.648-.552l.23-.008h6.543V4.842zm-11.877 0H2.842v13.276h6.544c.692 0 1.337.206 1.877.56V6.753c0-1.058-.843-1.912-1.877-1.912z"/>
</svg>
