<svg xmlns="http://www.w3.org/2000/svg" width="24" height="24" viewBox="0 0 24 24">
    <path fill="#1E1E1E" fill-rule="evenodd" d="M12.167 18.667c.644 0 1.166-.523 1.166-1.167s-.522-1.167-1.166-1.167c-.645 0-1.167.523-1.167 1.167s.522 1.167 1.167 1.167zm-2.084-9.158c0-.921.735-1.759 2.074-1.759 1.179 0 1.76.87 1.76 1.76 0 .577-.254 1.11-1.133 1.988-1.137 1.137-1.534 1.92-1.534 2.835V15c0 .414.336.75.75.75s.75-.336.75-.75v-.667c0-.47.216-.896 1.095-1.774 1.143-1.143 1.572-2.043 1.572-3.05 0-1.62-1.096-3.259-3.26-3.259-2.215 0-3.574 1.55-3.574 3.26 0 .414.336.75.75.75.415 0 .75-.336.75-.75zM12 22.75c5.937 0 10.75-4.813 10.75-10.75S17.937 1.25 12 1.25 1.25 6.063 1.25 12 6.063 22.75 12 22.75zm0-1.5c-5.109 0-9.25-4.141-9.25-9.25S6.891 2.75 12 2.75s9.25 4.141 9.25 9.25-4.141 9.25-9.25 9.25z"/>
</svg>
