<svg xmlns="http://www.w3.org/2000/svg" width="24" height="24" viewBox="0 0 24 24">
    <path fill="#1E1E1E" fill-rule="evenodd" d="M3.598 13.612v8.471c0 .507.41.917.916.917H9.62c.506 0 .916-.41.916-.917V17.09h2.931v4.994c0 .507.41.917.917.917h5.104c.506 0 .917-.41.917-.917v-8.47h1.595c.412 0 .78-.253.931-.634.148-.375.06-.803-.229-1.086L12.666 1.287c-.361-.383-.97-.383-1.331 0L1.278 11.916c-.266.26-.355.688-.207 1.063.151.38.52.634.934.633h1.593zM12 3.25l8.07 8.529h-.584c-.506 0-.917.41-.917.916v8.472H15.3v-4.995c0-.506-.411-.916-.917-.916H9.619c-.507 0-.917.41-.917.916v4.995H5.431v-8.472c0-.506-.41-.916-.917-.916h-.583L12 3.25z"/>
</svg>
