<svg xmlns="http://www.w3.org/2000/svg" width="24" height="24" viewBox="0 0 24 24">
    <path fill="#1E1E1E" fill-rule="evenodd" d="M13.623 1.575c3.402 0 6.16 2.757 6.16 6.16 0 .642-.099 1.262-.281 1.845 1.988.342 3.578 1.936 3.865 3.997.298 2.148-.904 4.194-2.863 5.006v2.892c0 .669-.808 1.003-1.28.53l-3.063-3.062h-1.816c-1.48.003-2.874-.69-3.768-1.87-.696-.918-1.024-2.05-.944-3.179h-.749l-3.747 3.748c-.473.472-1.28.138-1.28-.53V13.32C1.354 12.16-.093 9.452.38 6.69.886 3.753 3.423 1.598 6.41 1.575zm5.216 9.438c-1.09 1.731-3.02 2.881-5.216 2.881h-2.485c-.083.804.139 1.619.635 2.274.61.805 1.56 1.277 2.571 1.275h2.128c.199 0 .39.08.53.22l2.002 2.002v-1.616c0-.337.225-.633.55-.723 1.554-.43 2.549-1.945 2.327-3.542-.222-1.598-1.592-2.784-3.209-2.775zm-5.216-7.938H6.416c-2.256.017-4.175 1.647-4.557 3.87-.382 2.223.883 4.4 3.003 5.17.297.107.495.39.495.705v2.48l2.686-2.686c.141-.14.332-.22.53-.22h5.05c2.574 0 4.66-2.086 4.66-4.66 0-2.573-2.086-4.66-4.66-4.66z"/>
</svg>
