<svg xmlns="http://www.w3.org/2000/svg" width="24" height="24" viewBox="0 0 24 24">
    <path fill="#1E1E1E" fill-rule="evenodd" d="M6.946 18.645c.393 0 .785.098 1.178.294 1.08.589 1.472 1.963.883 3.042-.392.687-1.08 1.08-1.864 1.08-.393 0-.785-.099-1.178-.295-1.08-.589-1.472-1.962-.883-3.042.392-.687 1.08-1.08 1.864-1.08zm9.813 0c.393 0 .785.098 1.178.294 1.08.589 1.472 1.963.883 3.042-.392.687-1.08 1.08-1.864 1.08-.393 0-.785-.099-1.178-.295-1.08-.589-1.472-1.962-.883-3.042.392-.687 1.08-1.08 1.864-1.08zm-9.813 1.472l-.12.006c-.228.024-.384.12-.468.288-.197.196-.099.393-.099.49 0 .197.197.393.393.491.196.098.294.098.49.098.197 0 .491-.098.59-.294.196-.196.097-.392.097-.49 0-.197-.196-.393-.392-.491-.196-.098-.294-.098-.49-.098zm9.813 0l-.12.006c-.228.024-.384.12-.468.288-.197.196-.099.393-.099.49 0 .197.197.393.393.491.196.098.294.098.49.098.197 0 .491-.098.59-.294.196-.196.097-.392.097-.49 0-.197-.196-.393-.392-.491-.196-.098-.294-.098-.49-.098zM11.951 5.299c3.434 0 6.28 2.846 6.28 6.28 0 3.435-2.846 6.28-6.28 6.28-3.435 0-6.28-2.845-6.28-6.28 0-3.434 2.845-6.28 6.28-6.28zm0 1.472c-2.65 0-4.808 2.06-4.808 4.808 0 2.748 2.158 4.907 4.808 4.907s4.808-2.257 4.808-4.907-2.159-4.808-4.808-4.808zm9.715 3.042c.392 0 .785.098 1.177.294 1.08.59 1.472 1.963.884 3.042-.393.687-1.08 1.08-1.865 1.08-.392 0-.785-.098-1.178-.295-1.079-.588-1.471-1.962-.883-3.042.393-.687 1.08-1.079 1.865-1.079zm-19.528 0c.392 0 .883.098 1.178.294 1.079.59 1.471 1.963.883 3.042-.393.687-1.08 1.08-1.865 1.08-.392 0-.785-.098-1.177-.295-1.08-.588-1.472-1.962-.884-3.042.393-.687 1.08-1.079 1.865-1.079zm19.528 1.472l-.14.008c-.22.025-.384.106-.547.188-.196.393 0 .883.392 1.08.197.098.295.098.491.098s.49-.098.589-.295c.196-.196.098-.392.098-.49 0-.197-.196-.393-.393-.49-.196-.1-.294-.1-.49-.1zm-19.528 0l-.14.008c-.22.025-.383.106-.547.188-.196.393 0 .883.393 1.08.196.098.294.098.49.098s.49-.098.589-.295c.196-.196.098-.392.098-.49 0-.197-.196-.393-.392-.49-.197-.1-.295-.1-.491-.1zM6.946 0c.393 0 .785.098 1.178.294 1.08.59 1.472 1.963.883 3.042-.392.687-1.08 1.08-1.864 1.08-.393 0-.785-.098-1.178-.295-1.178-.588-1.57-1.962-.883-3.042C5.474.393 6.162 0 6.946 0zm9.813 0c.393 0 .785.098 1.178.294 1.08.59 1.472 1.963.883 3.042-.392.687-1.08 1.08-1.864 1.08-.393 0-.785-.098-1.178-.295-1.08-.588-1.472-1.962-.883-3.042C15.287.393 15.975 0 16.759 0zM6.946 1.472l-.105.005c-.237.023-.398.13-.483.387-.197.197-.099.393-.099.491 0 .196.197.393.393.589.196.098.294.098.49.098.295 0 .491-.098.59-.392.196-.197.097-.393.097-.491-.098-.196-.196-.393-.392-.589-.196-.098-.294-.098-.49-.098zm9.813 0l-.12.006c-.228.024-.384.12-.468.288-.197.197-.099.393-.099.491 0 .196.197.393.393.49.196.099.294.099.49.099.197 0 .491-.098.59-.295.196-.196.097-.392.097-.49 0-.197-.196-.393-.392-.49-.196-.1-.294-.1-.49-.1z"/>
</svg>
