<svg xmlns="http://www.w3.org/2000/svg" width="24" height="24" viewBox="0 0 24 24">
    <path fill="#1E1E1E" fill-rule="evenodd" d="M22 1.25c.414 0 .75.336.75.75v20c0 .414-.336.75-.75.75H2c-.414 0-.75-.336-.75-.75V2c0-.414.336-.75.75-.75h20zm-.75 1.5H2.75v18.5h18.5V2.75zM19 16.65c1 0 1 1.5 0 1.5H5c-1 0-1-1.5 0-1.5h14zm-6.364-11.4c.415 0 .75.336.75.75v7.8c0 .414-.335.75-.75.75H5c-.414 0-.75-.336-.75-.75V6c0-.414.336-.75.75-.75h7.636zm-.75 1.5H5.75v6.3h6.136v-6.3zM19 11.45c1 0 1 1.5 0 1.5h-3.818c-1 0-1-1.5 0-1.5H19zm.002-4.513c1 0 1 1.5 0 1.5h-3.82c-1 0-1-1.5 0-1.5h3.82z"/>
</svg>
