<svg width="1" height="1" viewBox="0 0 1 1" fill="none" xmlns="http://www.w3.org/2000/svg">
<path fill-rule="evenodd" clip-rule="evenodd" d="M0.833333 0.0208333C0.844384 0.0208333 0.854982 0.0252232 0.862796 0.0330372C0.87061 0.0408512 0.875 0.0514493 0.875 0.0625V0.9375C0.875 0.948551 0.87061 0.959149 0.862796 0.966963C0.854982 0.974777 0.844384 0.979167 0.833333 0.979167H0.166667C0.155616 0.979167 0.145018 0.974777 0.137204 0.966963C0.12939 0.959149 0.125 0.948551 0.125 0.9375V0.0625C0.125 0.0514493 0.12939 0.0408512 0.137204 0.0330372C0.145018 0.0252232 0.155616 0.0208333 0.166667 0.0208333H0.833333ZM0.8125 0.0833333H0.1875V0.916667H0.8125V0.0833333ZM0.690958 0.739583C0.699246 0.739583 0.707195 0.742876 0.713055 0.748736C0.718916 0.754597 0.722208 0.762545 0.722208 0.770833C0.722208 0.779121 0.718916 0.78707 0.713055 0.79293C0.707195 0.798791 0.699246 0.802083 0.690958 0.802083H0.309042C0.300754 0.802083 0.292805 0.798791 0.286945 0.79293C0.281084 0.78707 0.277792 0.779121 0.277792 0.770833C0.277792 0.762545 0.281084 0.754597 0.286945 0.748736C0.292805 0.742876 0.300754 0.739583 0.309042 0.739583H0.690958ZM0.30325 0.59375H0.685167C0.693084 0.593752 0.700706 0.59676 0.706491 0.602166C0.712277 0.607571 0.715795 0.614971 0.716334 0.62287C0.716874 0.630769 0.714395 0.638579 0.709399 0.644721C0.704402 0.650863 0.69726 0.654879 0.689417 0.655958L0.685167 0.65625H0.30325C0.295332 0.656248 0.287711 0.65324 0.281925 0.647834C0.27614 0.642429 0.272622 0.635029 0.272082 0.62713C0.271543 0.619231 0.274021 0.611421 0.279018 0.605279C0.284015 0.599137 0.291156 0.595121 0.299 0.594042L0.30325 0.59375H0.685167H0.30325ZM0.68925 0.207583C0.694422 0.212999 0.697478 0.220092 0.69786 0.227571C0.698243 0.235051 0.695926 0.242418 0.691333 0.248333L0.68825 0.25175L0.449583 0.479875L0.312708 0.359625C0.306788 0.354419 0.303053 0.347168 0.302254 0.339325C0.301455 0.331482 0.30365 0.323626 0.308398 0.317333C0.313147 0.31104 0.320099 0.306774 0.327861 0.305391C0.335622 0.304008 0.34362 0.30561 0.35025 0.309875L0.353958 0.312667L0.447792 0.395125L0.645083 0.206583C0.651074 0.200862 0.659092 0.197753 0.667374 0.197941C0.675656 0.198128 0.683524 0.201597 0.68925 0.207583Z" fill="#1E1E1E"/>
</svg>
