<svg xmlns="http://www.w3.org/2000/svg" width="24" height="24" viewBox="0 0 24 24">
    <path fill="#1E1E1E" fill-rule="evenodd" d="M12.75 1c.38 0 .693.282.743.648l.007.102v3.669l5.152-1.38c.4-.108.811.13.919.53l4.399 16.42c.107.4-.13.812-.53.919l-5.797 1.554c-.4.107-.811-.13-.918-.53L13.5 10.896V22.75c0 .38-.282.693-.648.743l-.102.007h-12c-.38 0-.693-.282-.743-.648L0 22.75v-17c0-.38.282-.693.648-.743L.75 5H6V1.75c0-.38.282-.693.648-.743L6.75 1h6zM6 6.5H1.5V22H6V6.5zm6-4H7.5V22H12V2.5zm6.316 3.181l-4.347 1.166 4.01 14.972 4.348-1.166-4.011-14.972zM4.75 7.5c.414 0 .75.336.75.75 0 .38-.282.693-.648.743L4.75 9h-2C2.336 9 2 8.664 2 8.25c0-.38.282-.693.648-.743L2.75 7.5h2zm13.557 0c.098.367-.093.744-.434.886l-.097.033-1.932.518c-.4.108-.811-.13-.918-.53-.099-.367.093-.743.433-.886l.097-.033 1.932-.518c.4-.107.811.13.919.53zm-7.557-4c.414 0 .75.336.75.75s-.336.75-.75.75h-2C8.336 5 8 4.664 8 4.25s.336-.75.75-.75h2z"/>
</svg>
