<svg xmlns="http://www.w3.org/2000/svg" width="24" height="24" viewBox="0 0 24 24">
    <path fill="#1E1E1E" fill-rule="evenodd" d="M9.397 1c4.638 0 8.397 3.76 8.397 8.397 0 2.049-.734 3.926-1.952 5.384l6.438 6.439c.293.293.293.767 0 1.06-.293.293-.767.293-1.06 0l-6.44-6.438c-1.457 1.218-3.334 1.952-5.383 1.952C4.76 17.794 1 14.034 1 9.397 1 4.76 4.76 1 9.397 1zm0 1.5C5.587 2.5 2.5 5.588 2.5 9.397c0 3.81 3.088 6.897 6.897 6.897 3.81 0 6.897-3.088 6.897-6.897 0-3.81-3.088-6.897-6.897-6.897z"/>
</svg>
