<?xml version="1.0" encoding="UTF-8"?>
<svg width="24px" height="24px" viewBox="0 0 24 24" version="1.1" xmlns="http://www.w3.org/2000/svg" xmlns:xlink="http://www.w3.org/1999/xlink">
    <!-- Generator: Sketch 53 (72520) - https://sketchapp.com -->
    <title>Add</title>
    <desc>Created with Sketch.</desc>
    <defs>
        <path d="M1.5,10.425 L9.374895,10.425 C9.65346,10.425 9.920475,10.314435 10.117455,10.11756 C10.31433,9.92058 10.425,9.653565 10.425,9.375 L10.425,1.5 L13.575,1.5 L13.575,9.375 C13.575,9.653565 13.685565,9.92058 13.88244,10.11756 C14.07942,10.314435 14.346435,10.425 14.625,10.425 L22.5,10.425 L22.5,13.575 L14.625,13.575 C14.346435,13.575 14.07942,13.68567 13.88244,13.882545 C13.685565,14.079525 13.575,14.34654 13.575,14.625105 L13.575,22.5 L10.425,22.5 L10.425,14.625105 C10.425,14.34654 10.31433,14.079525 10.117455,13.882545 C9.920475,13.68567 9.65346,13.575 9.374895,13.575 L1.5,13.575 L1.5,10.425 Z" id="path-1"></path>
    </defs>
    <g id="Add" stroke="none" stroke-width="1" fill="none" fill-rule="evenodd">
        <mask id="mask-2" fill="white">
            <use xlink:href="#path-1"></use>
        </mask>
        <use id="🌈-Color" fill="#717171" xlink:href="#path-1"></use>
    </g>
</svg>