<svg width="150" height="150" viewBox="0 0 150 150" fill="none" xmlns="http://www.w3.org/2000/svg">
<path d="M75 150C116.421 150 150 116.421 150 75C150 33.5786 116.421 0 75 0C33.5786 0 0 33.5786 0 75C0 116.421 33.5786 150 75 150Z" fill="#F2F2F2"/>
<path d="M117.195 137.013C105.174 145.209 90.6465 150 75 150C59.7792 150 45.6175 145.466 33.7917 137.675C46.2875 133.436 60.8938 131 76.5 131C91.2756 131 105.155 133.183 117.195 137.013Z" fill="#E9E9E9"/>
<path d="M123 74.5592C123 52.159 101.286 34 74.5 34C47.7142 34 26 52.159 26 74.5592C26 96.9594 47.7142 115.118 74.5 115.118C82.5399 115.118 90.1228 113.482 96.7988 110.587C99.0562 112.405 103.072 114.456 110.214 116C107.353 110.952 106.74 107.253 107.076 104.608C116.857 97.1874 123 86.4732 123 74.5592ZM112.824 114.521C114.101 116.775 112.112 119.48 109.58 118.932C103.798 117.682 99.472 116.011 96.4021 114C89.6134 116.698 82.1738 118.118 74.5 118.118C46.1642 118.118 23 98.7468 23 74.5592C23 50.3715 46.1642 31 74.5 31C102.836 31 126 50.3715 126 74.5592C126 86.7021 120.11 98.0032 109.992 106.136C110.031 108.333 110.889 111.106 112.824 114.521Z" fill="#2666AB"/>
<path fill-rule="evenodd" clip-rule="evenodd" d="M74.5 34C101.286 34 123 52.159 123 74.5592C123 86.4729 116.858 97.1869 107.077 104.607C106.74 107.251 107.352 110.951 110.214 116C103.071 114.456 99.0556 112.405 96.7983 110.586C90.1227 113.482 82.5398 115.118 74.5 115.118C47.7142 115.118 26 96.9594 26 74.5592C26 52.159 47.7142 34 74.5 34Z" fill="#6DA9E9"/>
<path fill-rule="evenodd" clip-rule="evenodd" d="M53.5 63C55.9853 63 58 60.9853 58 58.5C58 56.0147 55.9853 54 53.5 54C51.0147 54 49 56.0147 49 58.5C49 60.9853 51.0147 63 53.5 63Z" fill="#2666AB"/>
<path d="M80.5 63C82.9853 63 85 60.9853 85 58.5C85 56.0147 82.9853 54 80.5 54C78.0147 54 76 56.0147 76 58.5C76 60.9853 78.0147 63 80.5 63Z" fill="#2666AB"/>
<path d="M90.907 115.843C91.0075 115.812 91.1881 115.753 91.4374 115.669C91.8485 115.531 92.3056 115.371 92.7975 115.191C94.2047 114.675 95.6139 114.099 96.9378 113.475C98.8092 112.593 100.36 111.686 101.499 110.743C102.138 110.215 102.227 109.27 101.699 108.632C101.171 107.993 100.225 107.904 99.5871 108.432C98.6757 109.186 97.3229 109.977 95.659 110.761C94.424 111.343 93.0945 111.887 91.7651 112.374C91.2992 112.545 90.8671 112.696 90.4804 112.826C90.2511 112.903 90.0898 112.956 90.0081 112.981C89.2177 113.23 88.7782 114.071 89.0265 114.862C89.2747 115.652 90.1166 116.092 90.907 115.843Z" fill="#2666AB"/>
<path d="M80.9899 84.6283C80.2978 77.5401 74.2978 72 66.9986 72C59.7117 72 53.7197 77.5213 53.0108 84.5922C52.9643 85.0552 53.0108 86 54.3524 86H79.6507C80.9899 86 81.034 85.0796 80.9899 84.6283ZM66.9986 69C75.795 69 83.129 75.6653 83.9757 84.3368C84.2075 86.7103 82.8257 89 79.6507 89H54.3524C51.1551 89 49.7864 86.6802 50.0257 84.2929C50.8932 75.6411 58.2185 69 66.9986 69Z" fill="#2666AB"/>
<path fill-rule="evenodd" clip-rule="evenodd" d="M53.0101 84.6283C53.7022 77.5401 59.7022 72 67.0014 72C74.2883 72 80.2803 77.5213 80.9892 84.5922C81.0357 85.0552 80.9892 86 79.6476 86C78.3059 86 62.7755 86 54.3492 86C53.0101 86 52.966 85.0796 53.0101 84.6283Z" fill="white"/>
<path fill-rule="evenodd" clip-rule="evenodd" d="M106.329 63.5734L97.3931 69.8306C96.4848 70.4666 96.2648 71.7164 96.8999 72.6234L97.4679 73.4346C98.1051 74.3447 99.3535 74.5618 100.261 73.9264L109.177 67.683C111.807 70.3482 115.46 72 119.5 72C127.508 72 134 65.5081 134 57.5C134 49.4919 127.508 43 119.5 43C111.492 43 105 49.4919 105 57.5C105 59.6686 105.476 61.726 106.329 63.5734Z" fill="#2666AB"/>
<path d="M119.5 69C125.851 69 131 63.8513 131 57.5C131 51.1487 125.851 46 119.5 46C113.149 46 108 51.1487 108 57.5C108 63.8513 113.149 69 119.5 69Z" fill="white"/>
</svg>
