<?xml version="1.0" encoding="UTF-8"?>
<svg width="20" height="20" viewBox="0 0 20 20" fill="none" xmlns="http://www.w3.org/2000/svg">
    <path 
        fill-rule="evenodd" 
        clip-rule="evenodd" 
        d="M15.6 4.4V2H14V6H13.2V4.4H7.6V2H6V6H5.2V4.4H3.6C2.7176 4.4 2 5.1184 2 6V16.4C2 17.2824 2.7176 18 3.6 18H16.4C17.2824 18 18 17.2824 18 16.4V6C18 5.1184 17.2824 4.4 16.4 4.4H15.6ZM3.6 16.4V7.6H16.4L16.3976 16.4H3.6ZM12.4381 9.08571V9.88629C12.4381 10.1121 12.4134 10.2948 12.3641 10.4344C12.3147 10.574 12.2674 10.693 12.2221 10.7915L10.527 14.4385C10.4448 14.6151 10.3234 14.7639 10.163 14.885C10.0026 15.0061 9.79074 15.0667 9.52749 15.0667H8.13305L9.89603 11.6352C9.98241 11.4587 10.076 11.3006 10.1768 11.161C10.2775 11.0215 10.3876 10.888 10.5069 10.7608H8.14619C8.0886 10.7608 8.0341 10.7495 7.98268 10.7269C7.93127 10.7043 7.88602 10.6735 7.84694 10.6345C7.80786 10.5955 7.77599 10.5503 7.75131 10.499C7.72663 10.4477 7.71429 10.3954 7.71429 10.342V9.08571H12.4381Z" 
        fill="#717171"
    />
</svg>

