<?xml version="1.0" encoding="UTF-8"?>
<svg width="24px" height="24px" viewBox="0 0 24 24" version="1.1" xmlns="http://www.w3.org/2000/svg" xmlns:xlink="http://www.w3.org/1999/xlink">
    <path
        d="M19.35,4.65 L19.35,1.5 L17.25,1.5 L17.25,6.75 L16.2,6.75 L16.2,4.65 L8.85,4.65 L8.85,1.5 L6.75,1.5 L6.75,6.75 L5.7,6.75 L5.7,4.65 L3.6,4.65 C2.44185,4.65 1.5,5.5929 1.5,6.75 L1.5,20.4 C1.5,21.55815 2.44185,22.5 3.6,22.5 L20.4,22.5 C21.55815,22.5 22.5,21.55815 22.5,20.4 L22.5,6.75 C22.5,5.5929 21.55815,4.65 20.4,4.65 L19.35,4.65 Z M3.6,20.4 L3.6,8.85 L20.4,8.85 L20.39685,20.4 L3.6,20.4 Z M15.2,10.8 L15.2,11.8507491 C15.2,12.1471157 15.1676075,12.3868996 15.1028216,12.570108 C15.0380356,12.7533165 14.97595,12.9095802 14.9165629,13.0389038 L12.6917337,17.8255661 C12.5837571,18.0572709 12.4244941,18.2526005 12.2139398,18.4115608 C12.0033855,18.5705211 11.72535,18.65 11.379825,18.65 L9.54963142,18.65 L11.8635409,14.1462316 C11.9769163,13.9145268 12.0997378,13.7070733 12.2320091,13.5238649 C12.3642803,13.3406564 12.5086968,13.1655333 12.6652629,12.9984903 L9.56687412,12.9984903 C9.49129053,12.9984903 9.41975713,12.9836722 9.35227178,12.9540356 C9.28478642,12.9243989 9.22540021,12.8839859 9.17411134,12.8327953 C9.12282247,12.7816047 9.08098218,12.7223323 9.04858921,12.6549762 C9.01619624,12.5876202 9,12.518918 9,12.4488678 L9,10.8 L15.2,10.8 Z"
        fill-rule="evenodd"
        fill="#717171"
    />
</svg>