<?xml version="1.0" encoding="UTF-8"?>
<svg width="24px" height="24px" viewBox="0 0 24 24" version="1.1" xmlns="http://www.w3.org/2000/svg" xmlns:xlink="http://www.w3.org/1999/xlink">
    <!-- Generator: Sketch 53 (72520) - https://sketchapp.com -->
    <title>Caution</title>
    <desc>Created with Sketch.</desc>
    <defs>
        <path d="M12,19.565775 C11.2755,19.565775 10.6875,18.977775 10.6875,18.253275 C10.6875,17.528775 11.2755,16.940775 12,16.940775 C12.7245,16.940775 13.3125,17.528775 13.3125,18.253275 C13.3125,18.977775 12.7245,19.565775 12,19.565775 L12,19.565775 Z M10.95,9.853275 L13.05,9.853275 L13.05,16.153275 L10.95,16.153275 L10.95,9.853275 Z M22.3897507,20.933925 L12.9397501,2.033925 C12.5838,1.322025 11.4162,1.322025 11.0602499,2.033925 L1.61024932,20.933925 C1.44854931,21.259425 1.46534931,21.645825 1.65644932,21.955575 C1.84859934,22.264275 2.18564936,22.453275 2.54999938,22.453275 L21.4500006,22.453275 C21.8143506,22.453275 22.1514007,22.264275 22.3435507,21.955575 C22.5346507,21.645825 22.5514507,21.259425 22.3897507,20.933925 L22.3897507,20.933925 Z" id="path-1"></path>
    </defs>
    <g id="Caution" stroke="none" stroke-width="1" fill="none" fill-rule="evenodd">
        <mask id="mask-2" fill="white">
            <use xlink:href="#path-1"></use>
        </mask>
        <use id="🌈-Color" fill="#717171" xlink:href="#path-1"></use>
    </g>
</svg>