<?xml version="1.0" encoding="UTF-8"?>
<svg width="20" height="20" viewBox="0 0 20 20" fill="none" xmlns="http://www.w3.org/2000/svg">
    <path 
        fill-rule="evenodd" 
        clip-rule="evenodd" 
        d="M10 15.7951C9.448 15.7951 9 15.3461 9 14.7929C9 14.2396 9.448 13.7906 10 13.7906C10.552 13.7906 11 14.2396 11 14.7929C11 15.3461 10.552 15.7951 10 15.7951ZM9.2 8.37859H10.8V13.1893H9.2V8.37859ZM17.916 16.8398L10.716 2.40771C10.4448 1.8641 9.5552 1.8641 9.284 2.40771L2.084 16.8398C1.9608 17.0884 1.9736 17.3834 2.1192 17.62C2.2656 17.8557 2.5224 18 2.8 18H17.2C17.4776 18 17.7344 17.8557 17.8808 17.62C18.0264 17.3834 18.0392 17.0884 17.916 16.8398Z" 
        fill="#717171"
    />
</svg>
