<svg width="20" height="20" viewBox="0 0 20 20" fill="none" xmlns="http://www.w3.org/2000/svg">
    <path 
        fill-rule="evenodd" 
        clip-rule="evenodd" 
        d="M11.6068 14.8906H10.1906C10.0318 14.8906 9.90128 14.8507 9.79915 14.7709C9.69702 14.6911 9.62326 14.5919 9.57787 14.4733L8.84255 12.4555H4.76425L4.02894 14.4733C3.99262 14.5782 3.92113 14.674 3.81447 14.7606C3.7078 14.8472 3.57731 14.8906 3.42298 14.8906H2L5.86723 5H7.73957L11.6068 14.8906ZM8.37276 11.156H5.23404L6.43234 7.87962C6.49134 7.72914 6.55149 7.55358 6.61276 7.35294C6.67404 7.1523 6.73645 6.93571 6.8 6.70315C6.86354 6.93571 6.92822 7.15116 6.99404 7.34952C7.05985 7.54788 7.12 7.72002 7.17447 7.86594L8.37276 11.156Z" 
        fill="#717171"
    />
    <path 
        fill-rule="evenodd" 
        clip-rule="evenodd" 
        d="M18 14.8906H17.2443C17.0854 14.8906 16.9606 14.8666 16.8698 14.8187C16.779 14.7709 16.7109 14.674 16.6655 14.528L16.5157 14.0287C16.3387 14.1883 16.1651 14.3285 15.9949 14.4494C15.8247 14.5702 15.6488 14.6717 15.4672 14.7538C15.2857 14.8358 15.0928 14.8974 14.8885 14.9384C14.6843 14.9795 14.4573 15 14.2077 15C13.9126 15 13.6403 14.9601 13.3906 14.8803C13.141 14.8005 12.9265 14.6808 12.7472 14.5212C12.5679 14.3616 12.4284 14.1632 12.3285 13.9261C12.2287 13.689 12.1787 13.4131 12.1787 13.0985C12.1787 12.834 12.2479 12.573 12.3864 12.3153C12.5248 12.0577 12.7552 11.8251 13.0774 11.6176C13.3997 11.4102 13.8287 11.238 14.3643 11.1012C14.8999 10.9644 15.5648 10.8869 16.3592 10.8687V10.4583C16.3592 9.98859 16.2604 9.6409 16.063 9.41518C15.8655 9.18946 15.5784 9.0766 15.2017 9.0766C14.9294 9.0766 14.7024 9.10852 14.5209 9.17236C14.3393 9.2362 14.1816 9.30802 14.0477 9.38782C13.9138 9.46762 13.7901 9.53944 13.6766 9.60328C13.5631 9.66712 13.4383 9.69904 13.3021 9.69904C13.1887 9.69904 13.0911 9.6694 13.0094 9.61012C12.9277 9.55084 12.8618 9.47788 12.8119 9.39124L12.5055 8.85089C13.3089 8.11217 14.278 7.74282 15.4128 7.74282C15.8213 7.74282 16.1855 7.81007 16.5055 7.94459C16.8255 8.07911 17.0967 8.26607 17.3191 8.50547C17.5416 8.74487 17.7106 9.031 17.8264 9.36388C17.9421 9.69676 18 10.0616 18 10.4583V14.8906ZM14.7319 13.8372C14.9044 13.8372 15.0633 13.8212 15.2085 13.7893C15.3538 13.7574 15.4911 13.7095 15.6204 13.6457C15.7498 13.5818 15.8746 13.5032 15.9949 13.4097C16.1152 13.3162 16.2366 13.2057 16.3592 13.078V11.8947C15.8689 11.9175 15.4593 11.9596 15.1302 12.0212C14.8011 12.0828 14.5367 12.1614 14.337 12.2572C14.1373 12.3529 13.9955 12.4647 13.9115 12.5923C13.8275 12.72 13.7855 12.8591 13.7855 13.0096C13.7855 13.306 13.8729 13.518 14.0477 13.6457C14.2224 13.7734 14.4505 13.8372 14.7319 13.8372Z" 
        fill="#717171"
    />
</svg>
