<svg width="20" height="20" viewBox="0 0 20 20" fill="none" xmlns="http://www.w3.org/2000/svg">
<path fill-rule="evenodd" clip-rule="evenodd" d="M11.7574 15.3243H10.2085C10.0347 15.3243 9.89202 15.2809 9.78032 15.194C9.66862 15.1071 9.58794 14.9992 9.5383 14.8701L8.73404 12.6733H4.2734L3.46915 14.8701C3.42943 14.9843 3.35124 15.0885 3.23457 15.1828C3.11791 15.2772 2.97518 15.3243 2.80638 15.3243H1.25L5.47979 4.55625H7.52766L11.7574 15.3243ZM18.75 15.3243H17.9234C17.7496 15.3243 17.6131 15.2983 17.5138 15.2461C17.4145 15.194 17.3401 15.0885 17.2904 14.9297L17.1266 14.386C16.933 14.5598 16.7431 14.7125 16.5569 14.844C16.3707 14.9756 16.1784 15.086 15.9798 15.1754C15.7812 15.2648 15.5702 15.3318 15.3468 15.3765C15.1234 15.4211 14.8752 15.4435 14.6021 15.4435C14.2794 15.4435 13.9816 15.4 13.7085 15.3132C13.4355 15.2263 13.2009 15.096 13.0048 14.9222C12.8087 14.7484 12.656 14.5325 12.5468 14.2743C12.4376 14.0162 12.383 13.7158 12.383 13.3733C12.383 13.0853 12.4587 12.8011 12.6101 12.5206C12.7615 12.2401 13.0135 11.9869 13.366 11.761C13.7184 11.5352 14.1876 11.3477 14.7734 11.1988C15.3592 11.0499 16.0865 10.9655 16.9553 10.9456V10.4988C16.9553 9.98745 16.8473 9.60891 16.6314 9.36317C16.4154 9.11742 16.1014 8.99455 15.6894 8.99455C15.3915 8.99455 15.1433 9.0293 14.9447 9.09881C14.7461 9.16831 14.5736 9.2465 14.4271 9.33338C14.2807 9.42026 14.1454 9.49845 14.0213 9.56795C13.8972 9.63746 13.7606 9.67221 13.6117 9.67221C13.4876 9.67221 13.3809 9.63994 13.2915 9.5754C13.2021 9.51086 13.1301 9.43143 13.0755 9.3371L12.7404 8.74881C13.6192 7.94455 14.6791 7.54242 15.9202 7.54242C16.367 7.54242 16.7654 7.61565 17.1154 7.7621C17.4654 7.90856 17.7621 8.1121 18.0053 8.37274C18.2486 8.63338 18.4335 8.9449 18.5601 9.30732C18.6867 9.66973 18.75 10.0669 18.75 10.4988V15.3243ZM15.1755 14.1775C15.3642 14.1775 15.5379 14.1602 15.6968 14.1254C15.8557 14.0906 16.0058 14.0385 16.1473 13.969C16.2888 13.8995 16.4254 13.8139 16.5569 13.7121C16.6885 13.6103 16.8213 13.4899 16.9553 13.3509V12.0626C16.4191 12.0875 15.9711 12.1334 15.6112 12.2004C15.2512 12.2674 14.9621 12.3531 14.7436 12.4573C14.5252 12.5616 14.37 12.6832 14.2782 12.8222C14.1863 12.9612 14.1404 13.1126 14.1404 13.2765C14.1404 13.5992 14.236 13.83 14.4271 13.969C14.6183 14.108 14.8677 14.1775 15.1755 14.1775ZM8.22021 11.2584H4.78723L6.09787 7.69136C6.16241 7.52753 6.22819 7.33639 6.29521 7.11795C6.36223 6.89951 6.4305 6.6637 6.5 6.41051C6.5695 6.6637 6.64025 6.89827 6.71223 7.11423C6.78422 7.33019 6.85 7.5176 6.90957 7.67646L8.22021 11.2584Z" fill="#717171"/>
</svg>
