<?xml version="1.0" encoding="UTF-8"?>
<svg xmlns="http://www.w3.org/2000/svg" width="480" height="480" viewBox="0 0 480 480">
  <path fill="#717171" fill-rule="evenodd" d="M367.673,450 L112.0211,450 C91.88,450 75.5,433.62 75.5,413.4789 L75.5,157.827 C75.5,137.7048 91.8779,121.3059 112.0211,121.3059 L148.5422,121.3059 L148.5422,84.7827 L169.3973,84.7827 C177.56,53.3919 205.9184,30 239.8481,30 C273.7757,30 302.1341,53.3919 310.2968,84.7827 L331.1519,84.7827 L331.1519,121.3059 L367.673,121.3059 C387.8162,121.3059 404.1941,137.7048 404.1941,157.827 L404.1941,413.4789 C404.1941,433.62 387.8162,450 367.673,450 L367.673,450 Z M148.5422,157.827 L112.0211,157.827 L112.0211,413.4789 L367.673,413.4789 L367.673,157.827 L331.1519,157.827 L331.1519,194.3481 L148.5422,194.3481 L148.5422,157.827 Z M169.8467,355.5 L274.8467,355.5 L274.8467,320.4993 L169.8467,320.4993 L169.8467,355.5 Z M169.8467,285.5007 L309.8474,285.5007 L309.8474,250.5 L169.8467,250.5 L169.8467,285.5007 Z M185.0654,157.827 L294.6308,157.827 L294.6308,121.3059 L185.0654,121.3059 L185.0654,157.827 Z M271.4573,84.7827 C265.1384,73.8627 253.3406,66.5232 239.8481,66.5232 C226.3514,66.5232 214.5557,73.8627 208.22,84.7827 L271.4573,84.7827 Z"/>
</svg>
