<svg xmlns="http://www.w3.org/2000/svg" width="480" height="480" viewBox="0 0 480 480">
  <g fill="none" fill-rule="evenodd">
    <path fill="#757575" fill-rule="nonzero" d="M239.52045,71.9373 C332.002467,71.9373 407.1015,147.036333 407.1015,239.51835 C407.1015,332.001702 332.003226,407.0994 239.52045,407.0994 C147.036339,407.0994 71.9394,332.002461 71.9394,239.51835 C71.9394,147.035574 147.037098,71.9373 239.52045,71.9373 L239.52045,71.9373 Z M239.5204,30.042 C123.898868,30.042 30.0441,123.897488 30.0441,239.5183 C30.0441,355.140519 123.898181,448.9946 239.5204,448.9946 C355.141212,448.9946 448.9967,355.139832 448.9967,239.5183 C448.9967,123.898176 355.140524,30.042 239.5204,30.042 L239.5204,30.042 Z"/>
    <path fill="#757575" d="M261.51538,219.597046 L261.51538,124.3063 L219.6201,124.3063 L219.6201,219.588667 C219.6201,233.598439 226.620801,246.680231 238.278163,254.449705 C259.665703,268.706659 291.805667,290.1277 291.805667,290.1277 L315.0366,255.270852 L261.51538,219.597046 Z"/>
  </g>
</svg>
