<svg width="20" height="20" viewBox="0 0 20 20" fill="none" xmlns="http://www.w3.org/2000/svg">
    <path 
        fill-rule="evenodd" 
        clip-rule="evenodd" 
        d="M9.99997 3.6C13.5319 3.6 16.4 6.46807 16.4 10C16.4 13.532 13.5319 16.4 9.99997 16.4C6.46796 16.4 3.59997 13.532 3.59997 10C3.59997 6.46804 6.46799 3.6 9.99997 3.6ZM10 2C5.58436 2 2 5.58439 2 10C2 14.4157 5.58433 18 10 18C14.4156 18 18 14.4156 18 10C18 5.58441 14.4156 2 10 2ZM10.84 9.2392V5.6H9.24004C9.24004 5.6 9.24004 7.93456 9.24004 9.23888C9.24004 9.77392 9.5074 10.2735 9.9526 10.5702C10.7694 11.1147 11.9968 11.9328 11.9968 11.9328L12.884 10.6016L10.84 9.2392Z" 
        fill="#717171"
    />
</svg>


