<svg xmlns="http://www.w3.org/2000/svg" width="24" height="24" viewBox="0 0 24 24">
  <g fill="none" fill-rule="evenodd" transform="translate(2 2)">
    <path fill="#E5A823" fill-rule="nonzero" d="M9.99499476,17.2611115 C9.30534008,17.2611115 8.74562035,16.6993014 8.74562035,16.0070712 C8.74562035,15.314841 9.30534008,14.753031 9.99499476,14.753031 C10.6846494,14.753031 11.2443692,15.314841 11.2443692,16.0070712 C11.2443692,16.6993014 10.6846494,17.2611115 9.99499476,17.2611115 Z M8.99549523,7.9812137 L10.9944943,7.9812137 L10.9944943,14.0006069 L8.99549523,14.0006069 L8.99549523,7.9812137 Z M19.8850432,18.568323 L10.8895469,0.510143569 C10.5507165,-0.170047856 9.43927297,-0.170047856 9.10044263,0.510143569 L0.104946326,18.568323 C-0.0489766111,18.879325 -0.0329846179,19.2485144 0.148924307,19.5444679 C0.331832732,19.8394182 0.652672101,20.02 0.999498459,20.02 L18.990491,20.02 C19.3373174,20.02 19.6581568,19.8394182 19.8410652,19.5444679 C20.0229741,19.2485144 20.0389661,18.879325 19.8850432,18.568323 Z"/>
    <path stroke="#916911" stroke-width="1.14" d="M19.9646232,18.568323 L10.9331269,0.510143569 C10.5929405,-0.170047856 9.47704897,-0.170047856 9.13686264,0.510143569 L0.105366342,18.568323 C-0.0491725946,18.879325 -0.0331166014,19.2485144 0.149520324,19.5444679 C0.333160748,19.8394182 0.655284116,20.02 1.00349847,20.02 L19.066491,20.02 C19.4147054,20.02 19.7368288,19.8394182 19.9204692,19.5444679 C20.1031061,19.2485144 20.1191621,18.879325 19.9646232,18.568323 Z"/>
  </g>
</svg>
