<?xml version="1.0" encoding="UTF-8"?>
<svg width="24px" height="24px" viewBox="0 0 24 24" version="1.1" xmlns="http://www.w3.org/2000/svg" xmlns:xlink="http://www.w3.org/1999/xlink">
    <!-- Generator: Sketch 55.2 (78181) - https://sketchapp.com -->
    <title>Drag-Handle</title>
    <desc>Created with Sketch.</desc>
    <g id="Artboard" stroke="none" stroke-width="1" fill="none" fill-rule="evenodd">
        <path d="M7.2,0 L9.83448276,0 C9.94493971,-2.44257147e-16 10.0344828,0.08954305 10.0344828,0.2 L10.0344828,2.83448276 C10.0344828,2.94493971 9.94493971,3.03448276 9.83448276,3.03448276 L7.2,3.03448276 C7.08954305,3.03448276 7,2.94493971 7,2.83448276 L7,0.2 C7,0.08954305 7.08954305,-3.52205387e-17 7.2,0 Z M7.2,6.89655172 L9.83448276,6.89655172 C9.94493971,6.89655172 10.0344828,6.98609477 10.0344828,7.09655172 L10.0344828,9.73103448 C10.0344828,9.84149143 9.94493971,9.93103448 9.83448276,9.93103448 L7.2,9.93103448 C7.08954305,9.93103448 7,9.84149143 7,9.73103448 L7,7.09655172 C7,6.98609477 7.08954305,6.89655172 7.2,6.89655172 Z M7.2,14.0689655 L9.83448276,14.0689655 C9.94493971,14.0689655 10.0344828,14.1585086 10.0344828,14.2689655 L10.0344828,16.9034483 C10.0344828,17.0139052 9.94493971,17.1034483 9.83448276,17.1034483 L7.2,17.1034483 C7.08954305,17.1034483 7,17.0139052 7,16.9034483 L7,14.2689655 C7,14.1585086 7.08954305,14.0689655 7.2,14.0689655 Z M7.2,20.9655172 L9.83448276,20.9655172 C9.94493971,20.9655172 10.0344828,21.0550603 10.0344828,21.1655172 L10.0344828,23.8 C10.0344828,23.9104569 9.94493971,24 9.83448276,24 L7.2,24 C7.08954305,24 7,23.9104569 7,23.8 L7,21.1655172 C7,21.0550603 7.08954305,20.9655172 7.2,20.9655172 Z M13.5448276,0 L16.1793103,0 C16.2897673,-2.16501571e-16 16.3793103,0.08954305 16.3793103,0.2 L16.3793103,2.83448276 C16.3793103,2.94493971 16.2897673,3.03448276 16.1793103,3.03448276 L13.5448276,3.03448276 C13.4343706,3.03448276 13.3448276,2.94493971 13.3448276,2.83448276 L13.3448276,0.2 C13.3448276,0.08954305 13.4343706,-7.46496308e-18 13.5448276,0 Z M13.5448276,6.89655172 L16.1793103,6.89655172 C16.2897673,6.89655172 16.3793103,6.98609477 16.3793103,7.09655172 L16.3793103,9.73103448 C16.3793103,9.84149143 16.2897673,9.93103448 16.1793103,9.93103448 L13.5448276,9.93103448 C13.4343706,9.93103448 13.3448276,9.84149143 13.3448276,9.73103448 L13.3448276,7.09655172 C13.3448276,6.98609477 13.4343706,6.89655172 13.5448276,6.89655172 Z M13.5448276,14.0689655 L16.1793103,14.0689655 C16.2897673,14.0689655 16.3793103,14.1585086 16.3793103,14.2689655 L16.3793103,16.9034483 C16.3793103,17.0139052 16.2897673,17.1034483 16.1793103,17.1034483 L13.5448276,17.1034483 C13.4343706,17.1034483 13.3448276,17.0139052 13.3448276,16.9034483 L13.3448276,14.2689655 C13.3448276,14.1585086 13.4343706,14.0689655 13.5448276,14.0689655 Z M13.5448276,20.9655172 L16.1793103,20.9655172 C16.2897673,20.9655172 16.3793103,21.0550603 16.3793103,21.1655172 L16.3793103,23.8 C16.3793103,23.9104569 16.2897673,24 16.1793103,24 L13.5448276,24 C13.4343706,24 13.3448276,23.9104569 13.3448276,23.8 L13.3448276,21.1655172 C13.3448276,21.0550603 13.4343706,20.9655172 13.5448276,20.9655172 Z" id="Combined-Shape" fill="#717171" transform="translate(11.689655, 12.000000) scale(-1, 1) translate(-11.689655, -12.000000) "></path>
    </g>
</svg>