<?xml version="1.0" encoding="UTF-8"?>
<svg width="20" height="20" viewBox="0 0 20 20" fill="none" xmlns="http://www.w3.org/2000/svg">
    <path 
        d="M5 10C5 11.106 4.104 12 3 12C1.895 12 1 11.106 1 10C1 8.895 1.895 8 3 8C4.104 8 5 8.895 5 10Z" 
        fill="#717171"
    />
    <path 
        d="M12 10C12 11.106 11.104 12 10 12C8.895 12 8 11.106 8 10C8 8.895 8.895 8 10 8C11.104 8 12 8.895 12 10Z" 
        fill="#717171"
    />
    <path 
        d="M17 12C18.104 12 19 11.106 19 10C19 8.895 18.104 8 17 8C15.895 8 15 8.895 15 10C15 11.106 15.895 12 17 12Z" 
        fill="#717171"
    />
</svg>


