
<svg width="20" height="20" viewBox="0 0 20 20" fill="none" xmlns="http://www.w3.org/2000/svg">
    <path 
        d="M10 15C11.106 15 12 15.896 12 17C12 18.105 11.106 19 10 19C8.895 19 8 18.105 8 17C8 15.896 8.895 15 10 15Z" 
        fill="#717171"
    />
    <path 
        d="M10 8C11.106 8 12 8.896 12 10C12 11.105 11.106 12 10 12C8.895 12 8 11.105 8 10C8 8.896 8.895 8 10 8Z" 
        fill="#717171"
    />
    <path 
        d="M12 3C12 1.896 11.106 1 10 1C8.895 1 8 1.896 8 3C8 4.105 8.895 5 10 5C11.106 5 12 4.105 12 3Z" 
        fill="#717171"
    />
</svg>

