<?xml version="1.0" encoding="UTF-8"?>
<svg width="20" height="20" viewBox="0 0 20 20" fill="none" xmlns="http://www.w3.org/2000/svg">
    <path 
        fill-rule="evenodd" 
        clip-rule="evenodd" 
        d="M10 14.2C9.448 14.2 9 13.752 9 13.2C9 12.648 9.448 12.2 10 12.2C10.552 12.2 11 12.648 11 13.2C11 13.752 10.552 14.2 10 14.2ZM9.2 5.2H10.8V10.8H9.2V5.2ZM10 2C5.5888 2 2 5.5888 2 10C2 14.412 5.5888 18 10 18C14.4112 18 18 14.412 18 10C18 5.5888 14.4112 2 10 2Z" 
        fill="#717171"
    />
</svg>
