<svg width="20" height="14" viewBox="0 0 20 14" fill="none" xmlns="http://www.w3.org/2000/svg">
<mask id="path-1-outside-1" maskUnits="userSpaceOnUse" x="0" y="0" width="20" height="14" fill="black">
<rect fill="white" width="20" height="14"/>
<path fill-rule="evenodd" clip-rule="evenodd" d="M1 1V3H19V1H1ZM8 13H12V11H8V13ZM16 8H4V6H16V8Z"/>
</mask>
<path fill-rule="evenodd" clip-rule="evenodd" d="M1 1V3H19V1H1ZM8 13H12V11H8V13ZM16 8H4V6H16V8Z" fill="#3F3D3C"/>
<path d="M1 3H0.75V3.25H1V3ZM1 1V0.75H0.75V1H1ZM19 3V3.25H19.25V3H19ZM19 1H19.25V0.75H19V1ZM12 13V13.25H12.25V13H12ZM8 13H7.75V13.25H8V13ZM12 11H12.25V10.75H12V11ZM8 11V10.75H7.75V11H8ZM4 8H3.75V8.25H4V8ZM16 8V8.25H16.25V8H16ZM4 6V5.75H3.75V6H4ZM16 6H16.25V5.75H16V6ZM1.25 3V1H0.75V3H1.25ZM19 2.75H1V3.25H19V2.75ZM18.75 1V3H19.25V1H18.75ZM1 1.25H19V0.75H1V1.25ZM12 12.75H8V13.25H12V12.75ZM11.75 11V13H12.25V11H11.75ZM8 11.25H12V10.75H8V11.25ZM8.25 13V11H7.75V13H8.25ZM4 8.25H16V7.75H4V8.25ZM3.75 6V8H4.25V6H3.75ZM16 5.75H4V6.25H16V5.75ZM16.25 8V6H15.75V8H16.25Z" fill="#3F3D3C" mask="url(#path-1-outside-1)"/>
</svg>
