<svg width="19" height="16" viewBox="0 0 19 16" fill="none" xmlns="http://www.w3.org/2000/svg">
<rect x="1.50635" y="14.1421" width="20" height="1.66667" transform="rotate(-45 1.50635 14.1421)" fill="#3F3D3C"/>
<path fill-rule="evenodd" clip-rule="evenodd" d="M3.5201 12.1283C5.11855 13.2511 7.06524 13.9103 9.16667 13.9103C13.3333 13.9103 16.8917 11.3187 18.3333 7.66034C17.4053 5.30536 15.6001 3.39239 13.3202 2.32824L12.0524 3.59601C13.9771 4.31621 15.5808 5.74893 16.5167 7.66034C15.1417 10.4687 12.3333 12.2437 9.16667 12.2437C7.53829 12.2437 6.00466 11.7743 4.71197 10.9364L3.5201 12.1283ZM6.90961 8.7388C7.31144 9.58047 8.16981 10.1603 9.16667 10.1603C10.55 10.1603 11.6667 9.04367 11.6667 7.66034C11.6667 6.66349 11.0868 5.80511 10.2451 5.40329L6.90961 8.7388ZM7.34107 5.95032L7.45665 5.83474C7.41688 5.872 7.37833 5.91055 7.34107 5.95032ZM10.1557 3.13566C9.83073 3.09685 9.50061 3.07701 9.16667 3.07701C6.00833 3.07701 3.19167 4.85201 1.81667 7.66034C2.22814 8.50074 2.76797 9.2486 3.40734 9.88405L2.2371 11.0543C1.27385 10.0986 0.506363 8.94527 0 7.66034C1.44167 4.00201 5 1.41034 9.16667 1.41034C10.0002 1.41034 10.8094 1.51405 11.5821 1.70927L10.1557 3.13566Z" fill="#3F3D3C"/>
</svg>
