<svg width="20" height="20" viewBox="0 0 20 20" fill="none" xmlns="http://www.w3.org/2000/svg">
    <path 
        fill-rule="evenodd" 
        clip-rule="evenodd" 
        d="M4.45609 14.3745L2.47894 16.3462L3.63603 17.5L5.9219 15.2205C7.1608 15.7972 8.54249 16.1193 10 16.1193C14.0909 16.1193 17.5845 13.5818 19 10.0001C18.2984 8.2247 17.0862 6.70591 15.5438 5.62553L17.521 3.65385L16.3639 2.5L14.078 4.77956C14.078 4.77957 14.078 4.77956 14.078 4.77956L12.8332 6.02079C12.8332 6.02078 12.8332 6.02079 12.8332 6.02079L11.0589 7.79023C11.0589 7.79023 11.0589 7.79022 11.0589 7.79023L7.78399 11.0559C7.78398 11.0559 7.78399 11.0559 7.78399 11.0559L5.62629 13.2076C5.62631 13.2076 5.62628 13.2076 5.62629 13.2076L4.45609 14.3745C4.45611 14.3745 4.45608 14.3745 4.45609 14.3745ZM7.16563 13.9803C8.05174 14.3105 9.00796 14.4875 10 14.4875C13.1091 14.4875 15.8664 12.7496 17.2164 10.0001C16.5609 8.66503 15.5717 7.56851 14.3724 6.79363L12.216 8.94405C12.369 9.26356 12.4546 9.62161 12.4546 10C12.4546 11.3544 11.3582 12.4477 10 12.4477C9.62052 12.4477 9.26147 12.3624 8.94107 12.2098L7.16563 13.9803Z" 
        fill="#717171"
    />
    <path 
        d="M8.20821 8.32517L8.32045 8.21324C8.28184 8.24934 8.24441 8.28667 8.20821 8.32517Z" 
        fill="#717171"
    />
    <path 
        d="M10 5.51266C10.3279 5.51266 10.652 5.53208 10.971 5.57008L12.3715 4.17354C11.6128 3.98241 10.8183 3.88087 10 3.88087C5.90909 3.88087 2.41545 6.4183 1 10.0001C1.49715 11.2581 2.25067 12.3873 3.1964 13.323L4.34536 12.1772C3.71762 11.5551 3.18762 10.8229 2.78364 10.0001C4.13364 7.25051 6.89909 5.51266 10 5.51266Z" 
        fill="#717171"
    />
</svg>