<?xml version="1.0" encoding="UTF-8"?>
<svg width="20" height="20" viewBox="0 0 20 20" fill="none" xmlns="http://www.w3.org/2000/svg">
    <path 
        fill-rule="evenodd" 
        clip-rule="evenodd" 
        d="M12.4 14H7.6V12.4H9.2V10H8.4V8.4H10C10.4416 8.4 10.8 8.7584 10.8 9.2V12.4H12.4V14ZM10 5.8C10.552 5.8 11 6.248 11 6.8C11 7.352 10.552 7.8 10 7.8C9.448 7.8 9 7.352 9 6.8C9 6.248 9.448 5.8 10 5.8ZM10 2C5.5888 2 2 5.5888 2 10C2 14.412 5.5888 18 10 18C14.4112 18 18 14.412 18 10C18 5.5888 14.4112 2 10 2Z" 
        fill="#717171"
    />
</svg>

