<?xml version="1.0" encoding="UTF-8"?>
<svg width="20" height="20" viewBox="0 0 20 20" fill="none" xmlns="http://www.w3.org/2000/svg">
    <path 
        fill-rule="evenodd" 
        clip-rule="evenodd" 
        d="M14.2857 8.375V6.38C14.2857 3.96763 12.3623 2 10 2C7.636 2 5.71429 3.96763 5.71429 6.38V8.375C4.76886 8.375 4 9.159 4 10.125V16.25C4 17.2151 4.76886 18 5.71429 18H14.2857C15.2311 18 16 17.2151 16 16.25V10.125C16 9.159 15.2311 8.375 14.2857 8.375ZM10 14.5C9.29029 14.5 8.71429 13.912 8.71429 13.1875C8.71429 12.463 9.29029 11.875 10 11.875C10.7097 11.875 11.2857 12.463 11.2857 13.1875C11.2857 13.912 10.7097 14.5 10 14.5ZM12.5714 8.375H7.42857V6.37C7.42857 4.92275 8.58229 3.75 10 3.75C11.4177 3.75 12.5714 4.92275 12.5714 6.37V8.375Z" 
        fill="#717171"
    />
</svg>
