<?xml version="1.0" encoding="UTF-8"?>
<svg width="24px" height="24px" viewBox="0 0 24 24" version="1.1" xmlns="http://www.w3.org/2000/svg" xmlns:xlink="http://www.w3.org/1999/xlink">
    <title>Group</title>
    <desc>Created with Sketch.</desc>
    <g id="Page-1" stroke="none" stroke-width="1" fill="none" fill-rule="evenodd">
        <g id="Group" transform="translate(0.000000, -1.000000)">
            <rect id="Rectangle" x="0" y="0" width="24" height="24"></rect>
            <path d="M9.21306122,3.39448743 L9.21306122,6.47311412 L3.07102041,6.47311412 L3.07102041,21.8662476 L18.4261224,21.8662476 L18.4261224,15.7089942 L21.4971429,15.7089942 L21.4971429,21.8662476 C21.4971429,23.5656495 20.1213257,24.9448743 18.4261224,24.9448743 L18.4261224,24.9448743 L3.07102041,24.9448743 C1.37581714,24.9448743 0,23.5656495 0,21.8662476 L0,21.8662476 L0,6.47311412 C0,4.77371219 1.37581714,3.39448743 3.07102041,3.39448743 L3.07102041,3.39448743 L9.21306122,3.39448743 Z M24,1 L24,10.4970399 L21.2932641,10.4970399 L21.2932641,5.63184201 L12.7765194,14.1696809 L10.8628571,12.2512788 L19.3796018,3.71343996 L14.5264242,3.71343996 L14.5264242,1 L24,1 Z" id="Fill-49" fill="#757575"></path>
        </g>
    </g>
</svg>