<svg width="20" height="20" viewBox="0 0 20 20" fill="none" xmlns="http://www.w3.org/2000/svg">
    <path 
        fill-rule="evenodd" 
        clip-rule="evenodd" 
        d="M12.4034 13.277L11.4443 18H10.5195C10.3444 18 10.196 17.9367 10.0742 17.8102C9.95243 17.6836 9.89153 17.5199 9.89153 17.3189C9.89153 17.2891 9.89343 17.2612 9.89724 17.2352C9.90105 17.2091 9.90676 17.1775 9.91437 17.1403L10.725 13.277H7.90485L7.0942 17.2408C7.0333 17.5162 6.91722 17.7116 6.74596 17.8269C6.57469 17.9423 6.37869 18 6.15794 18H5.25595L6.22645 13.277H4.55947C4.38439 13.277 4.24738 13.2342 4.14843 13.1486C4.04948 13.063 4 12.916 4 12.7076C4 12.6704 4.0019 12.6294 4.00571 12.5848C4.00951 12.5401 4.01522 12.4955 4.02284 12.4508L4.11418 11.8144H6.44339L7.18554 8.17446H4.53663L4.68506 7.34822C4.72312 7.13236 4.81066 6.97232 4.94767 6.86811C5.08468 6.7639 5.30162 6.71179 5.59848 6.71179H7.40247L8.22455 2.71458C8.27022 2.49128 8.37488 2.31635 8.53853 2.18981C8.70219 2.06327 8.89819 2 9.12655 2H10.04L9.08088 6.71179H11.901L12.8601 2H13.7621C13.9524 2 14.1104 2.05583 14.236 2.16748C14.3616 2.27914 14.4244 2.42428 14.4244 2.60293C14.4244 2.66248 14.4206 2.71086 14.4129 2.74808L13.5794 6.71179H16L15.8516 7.5492C15.8135 7.76506 15.7241 7.92324 15.5833 8.02373C15.4424 8.12422 15.2274 8.17446 14.9382 8.17446H13.3625L12.6204 11.8144H14.6641C14.8468 11.8144 14.9876 11.8572 15.0866 11.9428C15.1855 12.0284 15.235 12.1791 15.235 12.395C15.235 12.4322 15.2331 12.4713 15.2293 12.5122C15.2255 12.5532 15.2198 12.596 15.2122 12.6406L15.1094 13.277H12.4034ZM8.12183 11.8144H10.942L11.6841 8.17447H8.86398L8.12183 11.8144Z" 
        fill="#717171"
    />
</svg>


