<svg width="20" height="20" viewBox="0 0 20 20" fill="none" xmlns="http://www.w3.org/2000/svg">
<path fill-rule="evenodd" clip-rule="evenodd" d="M12.574 13.5843L11.5455 18.75H10.5537C10.366 18.75 10.2068 18.6808 10.0762 18.5424C9.94561 18.404 9.88031 18.2249 9.88031 18.0051C9.88031 17.9725 9.88235 17.942 9.88643 17.9135C9.89052 17.885 9.89664 17.8504 9.9048 17.8097L10.7741 13.5843H7.74989L6.88058 17.9196C6.81528 18.2208 6.6908 18.4345 6.50714 18.5607C6.32348 18.6869 6.1133 18.75 5.87658 18.75H4.90932L5.95005 13.5843H4.16245C3.97471 13.5843 3.82778 13.5375 3.72167 13.4438C3.61556 13.3502 3.5625 13.1894 3.5625 12.9614C3.5625 12.9207 3.56454 12.876 3.56862 12.8271C3.5727 12.7783 3.57883 12.7294 3.58699 12.6806L3.68494 11.9845H6.18268L6.97853 8.00331H4.13796L4.29713 7.09962C4.33794 6.86351 4.43181 6.68847 4.57874 6.57449C4.72566 6.46051 4.95829 6.40352 5.27664 6.40352H7.21116L8.09271 2.03158C8.14169 1.78733 8.25392 1.59601 8.42942 1.45761C8.60492 1.3192 8.8151 1.25 9.05998 1.25H10.0395L9.011 6.40352H12.0352L13.0637 1.25H14.031C14.235 1.25 14.4044 1.31106 14.5391 1.43318C14.6738 1.5553 14.7411 1.71406 14.7411 1.90946C14.7411 1.97459 14.737 2.02751 14.7289 2.06821L13.8351 6.40352H16.4308L16.2716 7.31943C16.2308 7.55554 16.1349 7.72854 15.9839 7.83845C15.8329 7.94836 15.6023 8.00331 15.2921 8.00331H13.6024L12.8066 11.9845H14.9982C15.1941 11.9845 15.3451 12.0313 15.4513 12.1249C15.5574 12.2185 15.6104 12.3834 15.6104 12.6195C15.6104 12.6602 15.6084 12.703 15.6043 12.7477C15.6002 12.7925 15.5941 12.8393 15.5859 12.8882L15.4757 13.5843H12.574ZM7.98252 11.9845H11.0067L11.8026 8.00332H8.77837L7.98252 11.9845Z" fill="#717171"/>
</svg>
