<?xml version="1.0" encoding="utf-8"?>
<!-- Generator: Adobe Illustrator 16.0.0, SVG Export Plug-In . SVG Version: 6.00 Build 0)  -->
<!DOCTYPE svg PUBLIC "-//W3C//DTD SVG 1.1//EN" "http://www.w3.org/Graphics/SVG/1.1/DTD/svg11.dtd">
<svg width="20" height="20" viewBox="0 0 20 20" fill="none" xmlns="http://www.w3.org/2000/svg">
    <path 
        fill-rule="evenodd" 
        clip-rule="evenodd" 
        d="M17.0575 2.94246C16.4487 2.33442 15.6406 2 14.7797 2C13.9204 2 13.1108 2.33442 12.5027 2.94326L3.37549 12.071C3.27308 12.1734 3.19947 12.3022 3.16507 12.4423L2.02337 17.0065C1.95616 17.2786 2.03617 17.5682 2.23458 17.765C2.4322 17.9642 2.72103 18.0442 2.99385 17.9762L7.55826 16.8345C7.69828 16.8001 7.82709 16.7265 7.9295 16.6241L17.0567 7.49635C17.6648 6.88831 17.9992 6.07866 18 5.2194C18 4.35855 17.6656 3.5497 17.0567 2.94166L17.0575 2.94246ZM7.66138 13.4695L13.6387 7.49235L14.2204 8.07238L7.8558 14.4368L7.66138 13.4695ZM6.53023 12.3375L5.56295 12.1446L11.9283 5.78024L12.5084 6.36107L6.53023 12.3375ZM4.53241 13.5703L6.11335 13.8863L6.43018 15.468L3.89955 16.1009L4.53241 13.5703ZM13.0587 4.64897L13.6348 4.07454C14.2476 3.4633 15.3149 3.4633 15.9262 4.07454L15.9246 4.07373C16.5366 4.68577 16.5366 5.75304 15.9246 6.36508L15.3501 6.94112L13.0587 4.64897Z" 
        fill="#717171"
    />
</svg>

