<?xml version="1.0" encoding="UTF-8"?>
<svg width="24px" height="24px" viewBox="0 0 24 24" version="1.1" xmlns="http://www.w3.org/2000/svg" xmlns:xlink="http://www.w3.org/1999/xlink">
    <!-- Generator: sketchtool 54.1 (76490) - https://sketchapp.com -->
    <title>Radio</title>
    <desc>Created with sketchtool.</desc>
    <defs>
        <path d="M12,21.5 C6.75329488,21.5 2.5,17.2467051 2.5,12 C2.5,6.75329488 6.75329488,2.5 12,2.5 C17.2467051,2.5 21.5,6.75329488 21.5,12 C21.5,17.2467051 17.2467051,21.5 12,21.5 Z M12,19.0733696 C15.9350288,19.0733696 19.125,15.8949563 19.125,11.9741848 C19.125,8.05341329 15.9350288,4.875 12,4.875 C8.06497116,4.875 4.875,8.05341329 4.875,11.9741848 C4.875,15.8949563 8.06497116,19.0733696 12,19.0733696 Z M12,15.5237772 C10.0324856,15.5237772 8.4375,13.9345706 8.4375,11.9741848 C8.4375,10.013799 10.0324856,8.42459239 12,8.42459239 C13.9675144,8.42459239 15.5625,10.013799 15.5625,11.9741848 C15.5625,13.9345706 13.9675144,15.5237772 12,15.5237772 Z" id="path-1"></path>
    </defs>
    <g id="Symbols" stroke="none" stroke-width="1" fill="none" fill-rule="evenodd">
        <g id="Radio">
            <mask id="mask-2" fill="white">
                <use xlink:href="#path-1"></use>
            </mask>
            <use id="🌈-Color" fill="#717171" xlink:href="#path-1"></use>
        </g>
    </g>
</svg>