<?xml version="1.0" encoding="UTF-8"?>
<svg width="20" height="20" viewBox="0 0 20 20" fill="none" xmlns="http://www.w3.org/2000/svg">
    <path 
        d="M10 3.6C11.7376 3.6 13.3408 4.2968 14.5192 5.4808L12.4 7.6H17.2V2.8L15.6496 4.3504C14.1768 2.8712 12.172 2 10 2C5.5888 2 2 5.588 2 10H3.6C3.6 6.4712 6.4712 3.6 10 3.6Z" 
        fill="#717171"
    />
    <path 
        d="M10 16.4C8.2616 16.4 6.6592 15.7032 5.4808 14.5192L7.6 12.4H2.8V17.2L4.3496 15.6496C5.8232 17.1288 7.8272 18 10 18C14.4112 18 18 14.412 18 10H16.4C16.4 13.5288 13.5288 16.4 10 16.4Z"
        fill="#717171"
    />
</svg>
