<?xml version="1.0" encoding="UTF-8"?>
<svg width="24px" height="24px" viewBox="0 0 24 24" version="1.1" xmlns="http://www.w3.org/2000/svg" xmlns:xlink="http://www.w3.org/1999/xlink">
    <path
        d="M6.06855,6.06855 L8.85,8.85 L2.55,8.85 L2.55,2.55 L4.5849,4.5849 C6.51795,2.64345 9.14925,1.5 12,1.5 C17.7897,1.5 22.5,6.20925 22.5,12 L20.4,12 C20.4,7.36845 16.63155,3.6 12,3.6 C9.7194,3.6 7.6152,4.51455 6.06855,6.06855 Z M17.93145,17.93145 L15.15,15.15 L21.45,15.15 L21.45,21.45 L19.41615,19.4151 C17.48205,21.35655 14.8518,22.5 12,22.5 C6.2103,22.5 1.5,17.79075 1.5,12 L3.6,12 C3.6,16.63155 7.36845,20.4 12,20.4 C14.28165,20.4 16.3848,19.48545 17.93145,17.93145 Z"
        fill-rule="evenodd"
        fill="#717171"
        transform="translate(12.000000, 12.000000) scale(-1, 1) translate(-12.000000, -12.000000) "
    />
</svg>