<?xml version="1.0" encoding="UTF-8"?>
<svg width="24px" height="24px" viewBox="0 0 24 24" version="1.1" xmlns="http://www.w3.org/2000/svg" xmlns:xlink="http://www.w3.org/1999/xlink">
    <path
        d="M21.9423786,19.2396784 L18.163011,15.4609649 C19.1033184,14.0101833 19.6121345,12.3217407 19.6121345,10.5540778 C19.6111799,5.55079005 15.5606983,1.500055 10.5555899,1.500055 C5.55143619,1.500055 1.5,5.54983559 1.5,10.5540778 C1.5,15.5564111 5.55048156,19.6081006 10.5555899,19.6081006 C12.3245134,19.6081006 14.0132483,19.0993725 15.4623718,18.1601823 L19.2407847,21.9379414 C19.9892121,22.6881482 21.196815,22.6862393 21.9414239,21.9388958 C22.6860328,21.1944158 22.6860328,19.983204 21.9423786,19.2396784 L21.9423786,19.2396784 Z M10.425,3.60005 C14.1948871,3.60005 17.25,6.65098802 17.25,10.4229574 C17.25,12.245134 16.5397843,13.9588369 15.2497262,15.2468486 C13.9605797,16.5366835 12.247492,17.2458648 10.4240883,17.2458648 C6.65511288,17.2467763 3.6,14.1940152 3.6,10.4229574 C3.6,6.65189956 6.65237777,3.60005 10.425,3.60005 Z"
        fill-rule="evenodd"
        fill="#717171"
    />
</svg>