<?xml version="1.0" encoding="UTF-8"?>
<svg width="20" height="20" viewBox="0 0 20 20" fill="none" xmlns="http://www.w3.org/2000/svg">
    <path 
        fill-rule="evenodd" 
        clip-rule="evenodd" 
        d="M17.5752 15.5159L14.6957 12.6369C15.4121 11.5316 15.7998 10.2451 15.7998 8.89832C15.799 5.08628 12.7129 2 8.89951 2C5.08682 2 2 5.08556 2 8.89832C2 12.7096 5.08609 15.7966 8.89951 15.7966C10.2473 15.7966 11.5339 15.409 12.638 14.6935L15.5168 17.5718C16.0871 18.1434 17.0071 18.1419 17.5745 17.5725C18.1418 17.0053 18.1418 16.0824 17.5752 15.5159ZM8.80002 3.6C11.6723 3.6 14 5.92453 14 8.79842C14 10.1868 13.4589 11.4924 12.476 12.4738C11.4938 13.4565 10.1886 13.9968 8.79932 13.9968C5.92771 13.9975 3.6 11.6716 3.6 8.79842C3.6 5.92523 5.92563 3.6 8.80002 3.6Z" 
        fill="#717171"
    />
</svg>

