<svg width="24" height="24" viewBox="0 0 24 24" fill="none" xmlns="http://www.w3.org/2000/svg">
<path fill-rule="evenodd" clip-rule="evenodd" d="M17 7H15V15H12.4577C12.2765 15 12.1124 15.1164 12.0391 15.2969C11.9658 15.4774 11.9972 15.6881 12.119 15.8341L15.3227 19.6735C15.4962 19.8815 15.7421 20 16 20C16.2579 20 16.5038 19.8815 16.6773 19.6735L19.881 15.8341C20.0028 15.6881 20.0342 15.4774 19.9609 15.2969C19.8876 15.1164 19.7235 15 19.5423 15H17V7Z" fill="#3F3D3C"/>
<path fill-rule="evenodd" clip-rule="evenodd" d="M8 4C7.74209 4 7.49617 4.11853 7.32266 4.32648L4.11903 8.16589C3.99719 8.31194 3.96584 8.52258 4.03912 8.7031C4.11244 8.88356 4.27653 9 4.45768 9H7V17H9V9H11.5423C11.7235 9 11.8876 8.88356 11.9609 8.7031C12.0342 8.52258 12.0028 8.31194 11.881 8.16589L8.67734 4.32648C8.50383 4.11853 8.25791 4 8 4Z" fill="#3F3D3C"/>
</svg>
