<svg width="14" height="14" viewBox="0 0 14 14" fill="none" xmlns="http://www.w3.org/2000/svg">
<path fill-rule="evenodd" clip-rule="evenodd" d="M3.10213 0.605406C3.24673 0.43212 3.45166 0.333344 3.66659 0.333344C3.88151 0.333344 4.08644 0.43212 4.23104 0.605406C4.94748 1.46402 6.17696 2.93753 6.90072 3.80491C7.00226 3.92663 7.02838 4.10216 6.96732 4.25259C6.90622 4.40298 6.76948 4.50001 6.61852 4.50001C5.15058 4.50001 2.18259 4.50001 0.714652 4.50001C0.56369 4.50001 0.426954 4.40298 0.365851 4.25259C0.304788 4.10216 0.330914 3.92663 0.432446 3.80491C1.15621 2.93753 2.38569 1.46402 3.10213 0.605406Z" fill="#3F3D3C"/>
<path fill-rule="evenodd" clip-rule="evenodd" d="M10.8979 13.3946C10.7533 13.5679 10.5483 13.6667 10.3334 13.6667C10.1185 13.6667 9.91356 13.5679 9.76896 13.3946C9.05252 12.536 7.82304 11.0625 7.09928 10.1951C6.99774 10.0734 6.97162 9.89784 7.03268 9.74741C7.09378 9.59702 7.23052 9.49999 7.38148 9.49999C8.84942 9.49999 11.8174 9.49999 13.2853 9.49999C13.4363 9.49999 13.573 9.59702 13.6341 9.74741C13.6952 9.89784 13.6691 10.0734 13.5676 10.1951C12.8438 11.0625 11.6143 12.536 10.8979 13.3946Z" fill="#3F3D3C"/>
<rect x="9.5" y="2.83334" width="1.66667" height="6.66667" fill="#3F3D3C"/>
<rect x="2.83325" y="4.5" width="1.66667" height="6.66667" fill="#3F3D3C"/>
</svg>
