<?xml version="1.0" encoding="UTF-8"?>
<svg width="24px" height="24px" viewBox="0 0 24 24" version="1.1" xmlns="http://www.w3.org/2000/svg" xmlns:xlink="http://www.w3.org/1999/xlink">
    <!-- Generator: sketchtool 54.1 (76490) - https://sketchapp.com -->
    <title>Tag</title>
    <desc>Created with sketchtool.</desc>
    <defs>
        <path d="M6.75,8.85 C5.5887,8.85 4.65,7.90815 4.65,6.75 C4.65,5.58975 5.5887,4.65 6.75,4.65 C7.9092,4.65 8.85,5.58975 8.85,6.75 C8.85,7.90815 7.9092,8.85 6.75,8.85 M22.1923475,13.35765 L10.6423489,1.80765 C10.4449489,1.61025 10.178249,1.5 9.899999,1.5 L2.54999988,1.5 C1.97039994,1.5 1.5,1.9704 1.5,2.55 L1.5,9.9 C1.5,10.17825 1.61129999,10.446 1.80764996,10.64235 L13.3576486,22.19235 C13.5623986,22.3971 13.8311985,22.5 14.0999985,22.5 C14.3687985,22.5 14.6375984,22.3971 14.8423484,22.19235 L22.1923475,14.84235 C22.6028975,14.4318 22.6028975,13.7682 22.1923475,13.35765" id="path-1"></path>
    </defs>
    <g id="Symbols" stroke="none" stroke-width="1" fill="none" fill-rule="evenodd">
        <g id="Tag">
            <mask id="mask-2" fill="white">
                <use xlink:href="#path-1"></use>
            </mask>
            <use id="🌈-Color" fill="#717171" xlink:href="#path-1"></use>
        </g>
    </g>
</svg>