<svg width="20" height="20" viewBox="0 0 20 20" fill="none" xmlns="http://www.w3.org/2000/svg">
    <path 
        fill-rule="evenodd" 
        clip-rule="evenodd" 
        d="M1.4625 13.1625V5.85H14.625V3.65625C14.625 2.85041 13.9691 2.19375 13.1625 2.19375H12.4313V0H10.9688V3.65625H10.2375V2.19375H5.11875V0H3.65625V3.65625H2.925V2.19375H1.4625C0.655931 2.19375 0 2.84968 0 3.65625V13.1625C0 13.9691 0.655931 14.625 1.4625 14.625H5.85V13.1625H1.4625ZM12.9375 18C10.1459 18 7.875 15.7291 7.875 12.9375C7.875 10.1459 10.1459 7.875 12.9375 7.875C15.7291 7.875 18 10.1459 18 12.9375C18 15.7291 15.7291 18 12.9375 18ZM12.9375 9.32143C10.9436 9.32143 9.32143 10.9436 9.32143 12.9375C9.32143 14.9314 10.9436 16.5536 12.9375 16.5536C14.9314 16.5536 16.5536 14.9314 16.5536 12.9375C16.5536 10.9436 14.9314 9.32143 12.9375 9.32143ZM15.75 13.5H12.375V10.125H14.0625V12.15H15.75V13.5Z" 
        fill="#717171"
    />
</svg>
