<?xml version="1.0" encoding="UTF-8"?>
<svg width="24px" height="24px" viewBox="0 0 24 24" version="1.1" xmlns="http://www.w3.org/2000/svg" xmlns:xlink="http://www.w3.org/1999/xlink">
    <path
        d="M12.7428041,9.02878353 C14.7742489,6.99733875 20.2714826,1.5 20.2714826,1.5 L22.5,3.72841235 L14.9712165,11.2571959 C14.5609987,11.6674137 14.5609987,12.3325863 14.9712165,12.7428041 C17.0026613,14.7742489 22.5,20.2715876 22.5,20.2715876 L20.2714826,22.5 C20.2714826,22.5 14.7742489,17.0026613 12.7428041,14.9712165 C12.3324813,14.5609987 11.6674137,14.5609987 11.2571959,14.9712165 C9.22564605,17.0026613 3.72841235,22.5 3.72841235,22.5 L1.5,20.2715876 C1.5,20.2715876 6.9972337,14.7742489 9.02867848,12.7428041 C9.43900133,12.3325863 9.43900133,11.6674137 9.02867848,11.2571959 C6.9972337,9.2257511 1.5,3.72841235 1.5,3.72841235 L3.72841235,1.5 C3.72841235,1.5 9.22564605,6.99733875 11.2571959,9.02878353 C11.6674137,9.43900133 12.3324813,9.43900133 12.7428041,9.02878353 Z"
        fill-rule="evenodd"
        fill="#717171"
    />
</svg>