<svg width="20" height="20" viewBox="0 0 20 20" fill="none" xmlns="http://www.w3.org/2000/svg">
<path fill-rule="evenodd" clip-rule="evenodd" d="M2.67187 14.0469V6.9375H15.4688V4.80469C15.4688 4.02123 14.831 3.38281 14.0469 3.38281H13.3359V1.25H11.9141V4.80469H11.2031V3.38281H6.22656V1.25H4.80469V4.80469H4.09375V3.38281H2.67187C1.88771 3.38281 1.25 4.02052 1.25 4.80469V14.0469C1.25 14.831 1.88771 15.4688 2.67187 15.4688H6.9375V14.0469H2.67187ZM13.8281 18.75C11.1141 18.75 8.90625 16.5422 8.90625 13.8281C8.90625 11.1141 11.1141 8.90625 13.8281 8.90625C16.5422 8.90625 18.75 11.1141 18.75 13.8281C18.75 16.5422 16.5422 18.75 13.8281 18.75ZM13.8281 10.3125C11.8896 10.3125 10.3125 11.8896 10.3125 13.8281C10.3125 15.7666 11.8896 17.3438 13.8281 17.3438C15.7666 17.3438 17.3438 15.7666 17.3438 13.8281C17.3438 11.8896 15.7666 10.3125 13.8281 10.3125ZM16.5625 14.375H13.2812V11.0938H14.9219V13.0625H16.5625V14.375Z" fill="#717171"/>
</svg>
