<?xml version="1.0" encoding="UTF-8"?>
<svg width="20" height="20" viewBox="0 0 20 20" fill="none" xmlns="http://www.w3.org/2000/svg">
    <path 
        fill-rule="evenodd" 
        clip-rule="evenodd" 
        d="M10 2C5.59494 2 2 5.60759 2 10C2 14.3924 5.59494 18 10 18C14.4051 18 18 14.4051 18 10C18 5.59494 14.3924 2 10 2ZM9.42457 7.739C9.73599 8.0505 10.2407 8.05163 10.5535 7.74164C11.3517 6.95069 12.5522 5.76253 12.5522 5.76253L14.2496 7.45991C14.2496 7.45991 13.055 8.6423 12.2561 9.4339C12.1049 9.58369 12.0196 9.78757 12.0192 10.0004C12.0187 10.2133 12.103 10.4175 12.2535 10.568C13.052 11.3665 14.2375 12.5521 14.2375 12.5521L12.5401 14.2495C12.5401 14.2495 11.3546 13.064 10.5562 12.2654C10.4056 12.1149 10.2014 12.0306 9.98852 12.0311C9.77568 12.0315 9.5718 12.1168 9.42201 12.268C8.63033 13.0669 7.46002 14.2495 7.46002 14.2495L5.76265 12.5521C5.76265 12.5521 6.9388 11.3636 7.72975 10.5654C8.03982 10.2525 8.03862 9.74788 7.72711 9.43638C6.93584 8.64518 5.75056 7.45991 5.75056 7.45991L7.44794 5.76253C7.44794 5.76253 8.63329 6.94781 9.42457 7.739Z" 
        fill="#8A8A8A"
    />
</svg>

