<?xml version="1.0" encoding="UTF-8"?>
<svg width="24px" height="24px" viewBox="0 0 24 24" version="1.1" xmlns="http://www.w3.org/2000/svg" xmlns:xlink="http://www.w3.org/1999/xlink">
    <path
        d="M12,1.5 C6.21835443,1.5 1.5,6.23496159 1.5,11.999985 C1.5,17.7650084 6.21835443,22.49997 12,22.49997 C17.7816456,22.49997 22.5,17.7816223 22.5,11.999985 C22.5,6.21834769 17.7650316,1.5 12,1.5 L12,1.5 Z M11.2446767,9.03244385 C11.6534169,9.44128905 12.315782,9.44275934 12.7264126,9.03590953 C13.7739933,7.9977809 15.3497226,6.43833 15.3497226,6.43833 L17.577525,8.666132 C17.577525,8.666132 16.0095672,10.2180214 14.9610413,11.2569902 C14.7626574,11.4535888 14.6507054,11.7211813 14.6500753,12.0005361 C14.6494451,12.2798909 14.7601369,12.5480084 14.9576807,12.7455522 C16.0056814,13.7935528 17.5616669,15.349643 17.5616669,15.349643 L15.3338645,17.577445 C15.3338645,17.577445 13.777879,16.0214598 12.7298783,14.9733542 C12.5323345,14.7758104 12.2642169,14.6651187 11.984862,14.6657489 C11.7055072,14.666379 11.4379146,14.7783309 11.241316,14.9767149 C10.202242,16.0252405 8.66621049,17.577445 8.66621049,17.577445 L6.43840811,15.349643 C6.43840811,15.349643 7.98210618,13.789667 9.02023499,12.7420865 C9.42718989,12.331456 9.42561458,11.669091 9.01676931,11.2602458 C7.97822042,10.2218021 6.42255,8.666132 6.42255,8.666132 L8.65035237,6.43833 C8.65035237,6.43833 10.2061278,7.99400015 11.2446767,9.03244385 L11.2446767,9.03244385 Z"
        fill-rule="evenodd"
        fill="#717171"
    />
</svg>