<?xml version="1.0" encoding="UTF-8"?>
<svg width="24px" height="24px" viewBox="0 0 24 24" version="1.1" xmlns="http://www.w3.org/2000/svg" xmlns:xlink="http://www.w3.org/1999/xlink">
    <path
        d="M9.35,18.3 L8.9125,18.3 L8.0375,18.3 L7.6,18.3 L7.6,8.85 L9.35,8.85 L9.35,18.3 Z M12.85,18.3 L12.4125,18.3 L11.5375,18.3 L11.1,18.3 L11.1,8.85 L12.85,8.85 L12.85,18.3 Z M16.35,18.3 L15.9125,18.3 L15.0375,18.3 L14.6,18.3 L14.6,8.85 L16.35,8.85 L16.35,18.3 Z M17.75,6.75 L6.2,6.75 L6.2,20.4 L17.75,20.4 L17.75,6.75 Z M9.176445,4.6 L14.79409,4.6 L14.3887767,3.51431404 C14.3249385,3.43215702 14.2475,3.38219667 14.1564611,3.35 L9.82739666,3.35 C9.73635779,3.38275178 9.65891925,3.43271213 9.59508102,3.51431404 L9.176445,4.6 Z M21.8500013,6.32367169 C21.8497238,6.45134814 21.8086453,6.55598731 21.7264882,6.63758921 C21.6443312,6.71919112 21.539692,6.76026963 21.4125707,6.75 L19.8500012,6.75 L19.8500012,20.4 C19.8500012,21.55 18.9000011,22.5 17.750001,22.5 L6.20000027,22.5 C5.0500002,22.5 4.10000013,21.55 4.10000013,20.4 L4.10000013,6.75 L2.55963524,6.75 C2.43195879,6.75999207 2.3273196,6.71891356 2.24571769,6.63675654 C2.16411579,6.55459952 2.12303727,6.44996035 2.1,6.32283902 L2.1,5.04853291 C2.12248216,4.92085646 2.16356067,4.81621729 2.24571769,4.73461538 C2.32787472,4.65301348 2.4325139,4.61193497 2.55963524,4.6 L7.02961968,4.6 L7.98552775,2.73068993 C8.12208605,2.39373513 8.36800201,2.10701824 8.72327562,1.87053925 C9.07854924,1.63406027 9.43826377,1.51582078 9.80241923,1.5 L14.1722847,1.5 C14.5364402,1.51582078 14.8961547,1.63406027 15.2514283,1.87053925 C15.6067019,2.10701824 15.8526179,2.39373513 15.9891762,2.73068993 L16.9450843,4.6 L21.4150687,4.6 C21.5427452,4.61137986 21.6473843,4.65245837 21.7289862,4.73461538 C21.8105882,4.8167724 21.8516667,4.92141158 21.8500013,5.04853291 L21.8500013,6.32367169 Z"
        fill-rule="evenodd"
        fill="#717171"
    />
</svg>