<?xml version="1.0" encoding="UTF-8"?>
<svg width="20" height="20" viewBox="0 0 20 20" fill="none" xmlns="http://www.w3.org/2000/svg">
    <path 
        fill-rule="evenodd" 
        clip-rule="evenodd" 
        d="M8.00639 14.8H6.67728V7.60001H8.00639V14.8ZM10.6646 14.8H9.33546V7.60001H10.6646V14.8ZM13.3228 14.8H11.9936V7.60001H13.3228V14.8ZM14.386 6H5.61389V16.4H14.386V6ZM7.87453 4.3619H12.1411L11.8332 3.53471C11.7848 3.47211 11.726 3.43405 11.6568 3.40952H8.36892C8.29977 3.43447 8.24096 3.47253 8.19248 3.53471L7.87453 4.3619ZM17.5 5.67518C17.4998 5.77246 17.4686 5.85218 17.4062 5.91435C17.3438 5.97653 17.2643 6.00782 17.1677 6H15.981V16.4C15.981 17.2762 15.2595 18 14.386 18H5.61392C4.7405 18 4.01898 17.2762 4.01898 16.4V6H2.84909C2.75212 6.00761 2.67265 5.97632 2.61067 5.91372C2.5487 5.85112 2.5175 5.7714 2.5 5.67454V4.70364C2.51708 4.60637 2.54827 4.52664 2.61067 4.46447C2.67307 4.4023 2.75254 4.371 2.84909 4.3619H6.24401L6.97001 2.93767C7.07372 2.68094 7.2605 2.46249 7.53032 2.28232C7.80015 2.10214 8.07335 2.01205 8.34992 2H11.6688C11.9454 2.01205 12.2186 2.10214 12.4884 2.28232C12.7582 2.46249 12.945 2.68094 13.0487 2.93767L13.7747 4.3619H17.1696C17.2666 4.37058 17.3461 4.40187 17.4081 4.46447C17.47 4.52706 17.5012 4.60679 17.5 4.70364V5.67518Z" 
        fill="#717171"
    />
</svg>

