<?xml version="1.0" encoding="UTF-8"?>
<svg width="20" height="20" viewBox="0 0 20 20" fill="none" xmlns="http://www.w3.org/2000/svg">
    <path 
        d="M2 4.08913L3.06431 3.03313L16.9669 16.9357L15.9109 18L11.8948 13.9839L9.72457 16.1541C8.10316 17.7755 5.46732 17.7755 3.84591 16.1541C2.2245 14.5327 2.2245 11.8968 3.84591 10.2754L5.08484 9.03651C5.07652 9.71833 5.18462 10.4002 5.41744 11.057L5.02663 11.4478C4.04547 12.4207 4.04547 14.0005 5.02663 14.9734C5.99948 15.9545 7.57932 15.9545 8.55216 14.9734L10.7307 12.8115L9.38366 11.4728C9.37534 11.6723 9.29219 11.8802 9.14252 12.0382C8.81824 12.3625 8.28609 12.3625 7.9618 12.0382C7.08874 11.1568 6.6813 9.99272 6.75614 8.85358L2 4.08913ZM10.9053 3.21606C12.5267 1.59465 15.1625 1.59465 16.7839 3.21606C18.4054 4.83747 18.4054 7.4733 16.7839 9.09471L15.545 10.3336C15.5533 9.65181 15.4452 8.96999 15.2124 8.32142L15.6032 7.92231C16.5844 6.94946 16.5844 5.36962 15.6032 4.39678C14.6304 3.41562 13.0505 3.41562 12.0777 4.39678L9.30882 7.16565L8.13642 5.98493L10.9053 3.21606ZM11.4873 7.33195C11.8116 7.00767 12.3438 7.00767 12.6681 7.33195C13.8072 8.47109 14.1481 10.1008 13.6908 11.5393L12.2107 10.0676C12.1692 9.50214 11.928 8.94504 11.4873 8.51267C11.1464 8.18839 11.1464 7.65623 11.4873 7.33195Z" 
        fill="#717171"
    />
</svg>
