<?xml version="1.0" encoding="UTF-8"?>
<svg width="20" height="20" viewBox="0 0 20 20" fill="none" xmlns="http://www.w3.org/2000/svg">
    <path 
        fill-rule="evenodd" 
        clip-rule="evenodd" 
        d="M16.0489 9.49745C16.0538 9.40352 16.0642 9.30906 16.0642 9.21513C16.0642 6.61007 13.9356 4.5 11.3077 4.5C9.41435 4.5 7.78021 5.59957 7.01569 7.18927C6.64595 6.9021 6.18147 6.73368 5.67178 6.73368C4.45748 6.73368 3.47841 7.70964 3.47841 8.90799C3.47841 9.13578 3.51326 9.35386 3.5786 9.55683C2.63438 10.1117 2 11.132 2 12.3006C2 14.049 3.41415 15.4655 5.17245 15.4903H5.2122C5.2171 15.4903 5.222 15.4903 5.22744 15.4903C5.23289 15.4903 5.23725 15.4903 5.24269 15.4903H9.05006V12.4194C8.84042 12.4194 8.63513 12.4194 8.47558 12.4194H7.01188C6.69714 12.4194 6.60239 12.2213 6.80713 11.9838L9.59024 8.68991C9.79498 8.447 10.125 8.447 10.3297 8.68991L13.1128 11.9838C13.3176 12.2267 13.2228 12.4194 12.9081 12.4194H11.4444C11.2843 12.4194 11.0795 12.4194 10.8699 12.4194V15.4903H14.6822C14.7372 15.4951 14.7971 15.5 14.8521 15.5C16.5907 15.5 18 14.1035 18 12.3794C17.9902 11.0818 17.1908 9.96761 16.0517 9.49691L16.0489 9.49745Z" 
        fill="#717171"
    />
</svg>
