<?xml version="1.0" encoding="UTF-8"?>
<svg width="24px" height="24px" viewBox="0 0 24 24" version="1.1" xmlns="http://www.w3.org/2000/svg" xmlns:xlink="http://www.w3.org/1999/xlink">
    <path
        d="M19.9335695,11.3350025 C19.9399981,11.2107167 19.9535695,11.0857167 19.9535695,10.961431 C19.9535695,7.51428799 17.161427,4.722145 13.7142845,4.722145 C11.2307133,4.722145 9.08714208,6.17714507 8.08428504,8.2807166 C7.59928509,7.90071658 6.98999944,7.67785943 6.32142808,7.67785943 C4.7285711,7.67785943 3.44428552,8.96928807 3.44428552,10.5550024 C3.44428552,10.856431 3.4899998,11.1450025 3.57571407,11.4135739 C2.33714277,12.1478597 1.505,13.4978597 1.505,15.0442884 C1.505,17.3578599 3.35999981,19.2321457 5.66642815,19.2650029 L5.66642815,19.2650029 L5.718571,19.2650029 L5.738571,19.2650029 L5.75857099,19.2650029 L10.7528562,19.2650029 L10.7528562,15.2014312 L9.99928485,15.2014312 L8.07928504,15.2014312 C7.66642794,15.2014312 7.54214224,14.9392884 7.81071364,14.6250026 L11.4614276,10.266431 C11.729999,9.9450024 12.1628561,9.9450024 12.4314275,10.266431 L16.0821414,14.6250026 C16.3507128,14.9464312 16.2264271,15.2014312 15.81357,15.2014312 L13.8935702,15.2014312 L13.1399988,15.2014312 L13.1399988,19.2650029 L18.1407126,19.2650029 C18.2128554,19.2714314 18.2914269,19.27786 18.3635697,19.27786 C20.6442838,19.27786 22.492855,17.4300028 22.492855,15.1485741 C22.4799979,13.4314311 21.4314265,11.9571454 19.937141,11.3342882 L19.9335695,11.3350025 Z"
        fill-rule="evenodd"
        fill="#717171"
    />
</svg>