<svg width="480" height="480" viewBox="0 0 480 480" xmlns="http://www.w3.org/2000/svg"><title>040.add__plus-sign</title><g fill="none" fill-rule="evenodd"><path d="M30 208.5h157.498a21.005 21.005 0 0 0 14.851-6.149A21.007 21.007 0 0 0 208.5 187.5V30h63v157.5a21.005 21.005 0 0 0 6.149 14.851A21.005 21.005 0 0 0 292.5 208.5H450v63H292.5a21.007 21.007 0 0 0-14.851 6.15 21.005 21.005 0 0 0-6.149 14.852V450h-63V292.502a21.007 21.007 0 0 0-6.15-14.851 21.007 21.007 0 0 0-14.852-6.151H30v-63z" fill="#757575"/></g></svg>