<?xml version="1.0" encoding="UTF-8"?>
<svg width="24px" height="24px" viewBox="0 0 24 24" version="1.1" xmlns="http://www.w3.org/2000/svg" xmlns:xlink="http://www.w3.org/1999/xlink">
    <!-- Generator: Sketch 53 (72520) - https://sketchapp.com -->
    <title>Info-Circle</title>
    <desc>Created with Sketch.</desc>
    <defs>
        <path d="M15.15,17.25 L8.85,17.25 L8.85,15.15 L10.95,15.15 L10.95,12 L9.9,12 L9.9,9.9 L12,9.9 C12.5796,9.9 13.05,10.3704 13.05,10.95 L13.05,15.15 L15.15,15.15 L15.15,17.25 Z M12,6.4875 C12.7245,6.4875 13.3125,7.0755 13.3125,7.8 C13.3125,8.5245 12.7245,9.1125 12,9.1125 C11.2755,9.1125 10.6875,8.5245 10.6875,7.8 C10.6875,7.0755 11.2755,6.4875 12,6.4875 L12,6.4875 Z M12,1.5 C6.2103,1.5 1.5,6.2103 1.5,12 C1.5,17.79075 6.2103,22.5 12,22.5 C17.7897,22.5 22.5,17.79075 22.5,12 C22.5,6.2103 17.7897,1.5 12,1.5 L12,1.5 Z" id="path-1"></path>
    </defs>
    <g id="Info-Circle" stroke="none" stroke-width="1" fill="none" fill-rule="evenodd">
        <mask id="mask-2" fill="white">
            <use xlink:href="#path-1"></use>
        </mask>
        <use id="🌈-Color" fill="#717171" xlink:href="#path-1"></use>
    </g>
</svg>