<?xml version="1.0" encoding="UTF-8"?>
<svg width="24px" height="24px" viewBox="0 0 24 24" version="1.1" xmlns="http://www.w3.org/2000/svg" xmlns:xlink="http://www.w3.org/1999/xlink">
    <!-- Generator: Sketch 53 (72520) - https://sketchapp.com -->
    <title>Lock</title>
    <desc>Created with Sketch.</desc>
    <defs>
        <path d="M17.25,10.95 L17.25,6.75 C17.25,3.85515 14.8938,1.5 12,1.5 C9.1041,1.5 6.75,3.85515 6.75,6.75 L6.75,10.95 C5.59185,10.95 4.65,11.8908 4.65,13.05 L4.65,20.4 C4.65,21.55815 5.59185,22.5 6.75,22.5 L17.25,22.5 C18.40815,22.5 19.35,21.55815 19.35,20.4 L19.35,13.05 C19.35,11.8908 18.40815,10.95 17.25,10.95 L17.25,10.95 Z M12,18.3 C11.1306,18.3 10.425,17.5944 10.425,16.725 C10.425,15.8556 11.1306,15.15 12,15.15 C12.8694,15.15 13.575,15.8556 13.575,16.725 C13.575,17.5944 12.8694,18.3 12,18.3 L12,18.3 Z M15.15,10.95 L8.85,10.95 L8.85,6.75 C8.85,5.0133 10.2633,3.6 12,3.6 C13.7367,3.6 15.15,5.0133 15.15,6.75 L15.15,10.95 L15.15,10.95 Z" id="path-1"></path>
    </defs>
    <g id="Lock" stroke="none" stroke-width="1" fill="none" fill-rule="evenodd">
        <mask id="mask-2" fill="white">
            <use xlink:href="#path-1"></use>
        </mask>
        <use id="🌈-Color" fill="#717171" xlink:href="#path-1"></use>
    </g>
</svg>