<svg width="480" height="480" viewBox="0 0 480 480" xmlns="http://www.w3.org/2000/svg"><title>031.refresh</title><g fill="none" fill-rule="evenodd"><path d="M358.629 121.371L303 177h126V51l-40.698 40.698C349.641 52.869 297.015 30 240 30 124.206 30 30 124.185 30 240h42c0-92.631 75.369-168 168-168 45.612 0 87.696 18.291 118.629 49.371zM121.371 358.629L177 303H51v126l40.677-40.698C130.359 427.131 182.964 450 240 450c115.794 0 210-94.185 210-210h-42c0 92.631-75.369 168-168 168-45.633 0-87.696-18.291-118.629-49.371z" fill="#757575"/></g></svg>