<svg width="480" height="480" viewBox="0 0 480 480" xmlns="http://www.w3.org/2000/svg"><title>034.search__magnifying__glass</title><g fill="none" fill-rule="evenodd"><path d="M438.848 384.794l-75.588-75.575c18.806-29.015 28.983-62.784 28.983-98.137-.02-100.066-81.029-181.08-181.131-181.08C111.029 30.001 30 110.996 30 211.081c0 100.046 81.01 181.08 181.112 181.08 35.378 0 69.153-10.175 98.135-28.958l75.569 75.555c14.968 15.004 39.12 14.966 54.012.019 14.893-14.89 14.893-39.114.02-53.984zM208.5 72c75.398 0 136.5 61.019 136.5 136.458 0 36.444-14.204 70.718-40.005 96.478-25.783 25.797-60.045 39.98-96.513 39.98C133.102 344.936 72 283.88 72 208.46c0-75.421 61.048-136.458 136.5-136.458z" fill="#757575"/></g></svg>